%TF.GenerationSoftware,Altium Limited,Altium Designer,19.0.4 (130)*%
G04 Layer_Color=0*
%FSLAX45Y45*%
%MOMM*%
%TF.FileFunction,Plated,1,2,PTH,Drill*%
%TF.Part,Single*%
G01*
G75*
%TA.AperFunction,ComponentDrill*%
%ADD79O,1.20002X0.60000*%
%ADD80O,1.20000X0.60000*%
%ADD81C,0.40000*%
%ADD82C,2.30002*%
%ADD83C,0.70002*%
%ADD84C,2.30002*%
%ADD85C,0.70002*%
%ADD86O,1.60000X0.60960*%
%ADD87O,1.80000X0.60960*%
%TA.AperFunction,ViaDrill,NotFilled*%
%ADD88C,0.30000*%
%ADD89C,0.71120*%
D79*
X244992Y1449982D02*
D03*
Y2347999D02*
D03*
D80*
X684005Y1485999D02*
D03*
Y2311982D02*
D03*
D81*
X673998Y1658978D02*
D03*
Y1738948D02*
D03*
X744005Y1778996D02*
D03*
Y1618996D02*
D03*
Y1858965D02*
D03*
Y1938985D02*
D03*
Y2018957D02*
D03*
X673998Y1978995D02*
D03*
Y2058965D02*
D03*
Y1818958D02*
D03*
Y2138985D02*
D03*
X744005Y2178985D02*
D03*
D82*
X2456999Y3850010D02*
D03*
X3343001D02*
D03*
X4656999D02*
D03*
X5543001D02*
D03*
X6856999D02*
D03*
X1143001D02*
D03*
D83*
X2000000Y3500000D02*
D03*
X2199999D02*
D03*
X2149974Y3650025D02*
D03*
X1900000D02*
D03*
X1700000D02*
D03*
X1800000Y3500000D02*
D03*
X1600000D02*
D03*
X1400001D02*
D03*
X1450026Y3650025D02*
D03*
X3600001Y3500000D02*
D03*
X3800000D02*
D03*
X3900000Y3650025D02*
D03*
X3650026D02*
D03*
X4100000D02*
D03*
X4199999Y3500000D02*
D03*
X4000000D02*
D03*
X4399999D02*
D03*
X4349974Y3650025D02*
D03*
X5850026D02*
D03*
X5800001Y3500000D02*
D03*
X6000000D02*
D03*
X6200000D02*
D03*
X6100000Y3650025D02*
D03*
X6300000D02*
D03*
X6549974D02*
D03*
X6599999Y3500000D02*
D03*
X6400000D02*
D03*
D84*
X6850009Y1843001D02*
D03*
Y3156999D02*
D03*
D85*
X6500000Y2100001D02*
D03*
X6650025Y2150026D02*
D03*
Y2400000D02*
D03*
Y2600000D02*
D03*
Y2849974D02*
D03*
X6500000Y2899999D02*
D03*
Y2700000D02*
D03*
Y2500000D02*
D03*
Y2300000D02*
D03*
D86*
X670995Y2667994D02*
D03*
Y3532006D02*
D03*
D87*
X289005Y2667994D02*
D03*
Y3532006D02*
D03*
D88*
X104000Y656000D02*
D03*
Y949615D02*
D03*
X490000Y1327000D02*
D03*
X736000Y1238000D02*
D03*
X915000Y1459000D02*
D03*
X1172000Y1235000D02*
D03*
X1517000Y1238000D02*
D03*
X1878000Y1235000D02*
D03*
X2183000D02*
D03*
X2375000Y833000D02*
D03*
X2330000Y594000D02*
D03*
X2598000Y612000D02*
D03*
X2847289Y274279D02*
D03*
X2757640Y105000D02*
D03*
X3040720D02*
D03*
X3323800D02*
D03*
X3606880D02*
D03*
X3889959D02*
D03*
X4173039D02*
D03*
X4456119D02*
D03*
X4739199D02*
D03*
X5022279D02*
D03*
X5305359D02*
D03*
X5588439D02*
D03*
X5871519D02*
D03*
X6154599D02*
D03*
X6437679D02*
D03*
X6720759D02*
D03*
X7003839D02*
D03*
X7286919D02*
D03*
X7569999D02*
D03*
X7864000Y625000D02*
D03*
Y918615D02*
D03*
Y1212231D02*
D03*
Y1505846D02*
D03*
Y1799461D02*
D03*
Y2093077D02*
D03*
Y2386692D02*
D03*
Y2680308D02*
D03*
Y2973923D02*
D03*
Y3267538D02*
D03*
Y3561154D02*
D03*
Y3854769D02*
D03*
Y4148384D02*
D03*
Y4442000D02*
D03*
X7396999Y4891000D02*
D03*
X7113919D02*
D03*
X6830839D02*
D03*
X6547759D02*
D03*
X6264679D02*
D03*
X5981599D02*
D03*
X5698519D02*
D03*
X5415439D02*
D03*
X5132359D02*
D03*
X4849279D02*
D03*
X4566199D02*
D03*
X4283119D02*
D03*
X4000039D02*
D03*
X3716960D02*
D03*
X3433880D02*
D03*
X3150800D02*
D03*
X2867720D02*
D03*
X2584640D02*
D03*
X2301560D02*
D03*
X2018480D02*
D03*
X1735400D02*
D03*
X1452320D02*
D03*
X1169240D02*
D03*
X886160D02*
D03*
X603080D02*
D03*
X320000D02*
D03*
X104000Y4473000D02*
D03*
Y4179384D02*
D03*
Y3885769D02*
D03*
Y3592154D02*
D03*
Y3298538D02*
D03*
Y3004923D02*
D03*
Y2711308D02*
D03*
Y2417692D02*
D03*
Y2124077D02*
D03*
Y1830461D02*
D03*
Y1536846D02*
D03*
Y1243231D02*
D03*
X451000Y1534000D02*
D03*
X444000Y1720000D02*
D03*
X626000Y1590000D02*
D03*
X925000Y1583000D02*
D03*
X1337000Y1596000D02*
D03*
X1480000Y1601000D02*
D03*
X1665000Y1654000D02*
D03*
X1971000Y1782000D02*
D03*
X2426000Y1229000D02*
D03*
X2570000Y1347000D02*
D03*
X2666492Y836930D02*
D03*
X3018000Y582000D02*
D03*
X3157728Y596392D02*
D03*
X3025290Y275279D02*
D03*
X3833114Y346710D02*
D03*
X4068000Y584000D02*
D03*
X4579000Y604000D02*
D03*
X4743289Y277279D02*
D03*
X4897000Y197000D02*
D03*
X5274000Y573000D02*
D03*
X5415000Y1056000D02*
D03*
X5592000Y1062000D02*
D03*
X5724000Y1069000D02*
D03*
X5993000Y1323000D02*
D03*
X6115000Y1447000D02*
D03*
X6311000Y1669000D02*
D03*
X6392000Y1758000D02*
D03*
X6437000Y1860000D02*
D03*
X6432000Y1963000D02*
D03*
X6652000Y2275000D02*
D03*
X6814000Y2386000D02*
D03*
X6827000Y2132000D02*
D03*
X6945000Y2561000D02*
D03*
Y2745000D02*
D03*
X6659000Y2729000D02*
D03*
X6930000Y2915000D02*
D03*
X6587000Y2966000D02*
D03*
X6293000Y2791000D02*
D03*
X6425000Y2604000D02*
D03*
X6428000Y2402000D02*
D03*
X6040000Y2534000D02*
D03*
X6136000Y2634000D02*
D03*
X5974000Y2723000D02*
D03*
X6130000Y2373000D02*
D03*
X6070000Y2272000D02*
D03*
X6177000Y2240000D02*
D03*
X6066000Y2124000D02*
D03*
X6077000Y1706000D02*
D03*
X6042000Y1606000D02*
D03*
X6259000Y1580000D02*
D03*
X5753000Y1834000D02*
D03*
X5641000Y1962000D02*
D03*
X5656000Y1740000D02*
D03*
X5718000Y1554000D02*
D03*
X5634000Y1471000D02*
D03*
X5937000Y1513000D02*
D03*
X5812000Y1641000D02*
D03*
X5890000Y1721000D02*
D03*
X5826000Y1399000D02*
D03*
X5737000Y1311000D02*
D03*
X5858000Y1194000D02*
D03*
X5559000Y1649000D02*
D03*
X5460000Y1550000D02*
D03*
X5390000Y1715000D02*
D03*
X5470000Y1793000D02*
D03*
X5420000Y1271000D02*
D03*
X5578000Y1269000D02*
D03*
X5016000Y1035000D02*
D03*
X4686000Y1021000D02*
D03*
X4481000Y1026000D02*
D03*
X3672000Y928000D02*
D03*
X3683000Y719000D02*
D03*
X3772000Y610000D02*
D03*
X3150000Y1450000D02*
D03*
X3052000Y1420000D02*
D03*
X3012694Y1693926D02*
D03*
X3301000Y1913000D02*
D03*
X3484000Y1905000D02*
D03*
X3522000Y2112000D02*
D03*
X3157000Y2060000D02*
D03*
X2665000Y1915000D02*
D03*
X2622000Y1700000D02*
D03*
X2659000Y1439000D02*
D03*
X2684526Y1143762D02*
D03*
X2447000Y1700000D02*
D03*
X2284000Y1692000D02*
D03*
X2592000Y1893000D02*
D03*
X2468000Y2019000D02*
D03*
X2548000Y2107000D02*
D03*
X2341892Y2182044D02*
D03*
X2851000Y2516000D02*
D03*
X2854000Y2752000D02*
D03*
X2692000Y2755000D02*
D03*
X3018000D02*
D03*
X3183000Y2750000D02*
D03*
X3452000Y2732000D02*
D03*
X3454000Y2577000D02*
D03*
X3634000Y2807000D02*
D03*
X3735000Y2964000D02*
D03*
X3632000Y3066000D02*
D03*
X3873000Y3058000D02*
D03*
X3955000Y2785000D02*
D03*
X4191000Y2788000D02*
D03*
X4008000Y2395000D02*
D03*
X4565000Y2032000D02*
D03*
X4844000Y2019000D02*
D03*
X4747000Y1920000D02*
D03*
X5016246Y1847088D02*
D03*
X5388000Y1945000D02*
D03*
X5460000Y2017000D02*
D03*
X5530000Y2085000D02*
D03*
X5559000Y1880000D02*
D03*
X5952000Y2450000D02*
D03*
X5818000Y2563000D02*
D03*
X5827000Y2725000D02*
D03*
X6016000Y2925000D02*
D03*
X6099000Y2862000D02*
D03*
X6245000Y2999000D02*
D03*
X6020000Y3092000D02*
D03*
X6026000Y3317000D02*
D03*
X6425000Y3646000D02*
D03*
X6406000Y3777000D02*
D03*
X6615000Y3794000D02*
D03*
X6246000Y3902000D02*
D03*
X6046000Y3922000D02*
D03*
X5825000Y3917000D02*
D03*
X5708000Y3574000D02*
D03*
X5633000Y3492000D02*
D03*
X5701000Y3413000D02*
D03*
X5818000Y3149000D02*
D03*
X5712000Y3044000D02*
D03*
X5922000Y2987000D02*
D03*
X5829000Y2882000D02*
D03*
X5575000Y3146000D02*
D03*
X5405000Y3227000D02*
D03*
X5402000Y3392000D02*
D03*
X5584000Y3415000D02*
D03*
X5406000Y3060000D02*
D03*
X5405000Y2904000D02*
D03*
X5400000Y2737000D02*
D03*
X5402000Y2584000D02*
D03*
X5400000Y2446000D02*
D03*
X5405000Y2281000D02*
D03*
X5384000Y2178000D02*
D03*
X5263000Y2796000D02*
D03*
X5252000Y2284000D02*
D03*
X5064000Y2281000D02*
D03*
X4633000Y2776000D02*
D03*
X4814000Y2383000D02*
D03*
X4790000Y2261000D02*
D03*
X4788000Y2161000D02*
D03*
X4947000Y2144000D02*
D03*
X4425000Y2798000D02*
D03*
X4580000Y2404000D02*
D03*
X4575000Y2262000D02*
D03*
X4569000Y2137000D02*
D03*
X4393438Y2187194D02*
D03*
X5039000Y2885000D02*
D03*
X5169000D02*
D03*
X4961000Y3171000D02*
D03*
X5422000Y3567000D02*
D03*
X5476000Y3643000D02*
D03*
X4907000Y2879000D02*
D03*
X4732000Y2865000D02*
D03*
X4496000Y3143000D02*
D03*
X4490000Y3294000D02*
D03*
X4486000Y3403000D02*
D03*
X4408000Y3032000D02*
D03*
Y2924000D02*
D03*
X4097000Y3223000D02*
D03*
X4083000Y3344000D02*
D03*
X3969000Y3215000D02*
D03*
X4089000Y3093000D02*
D03*
X4193000Y2947000D02*
D03*
X3952000Y2941000D02*
D03*
X3787000Y3143000D02*
D03*
X3869000Y3313000D02*
D03*
X4234000Y3624000D02*
D03*
X4237000Y3789000D02*
D03*
X4439000Y3794000D02*
D03*
X4055000Y3848000D02*
D03*
X3860000Y3929000D02*
D03*
X3616000Y3932000D02*
D03*
X3777000Y3684000D02*
D03*
X3547000Y3609000D02*
D03*
X3349000Y3618000D02*
D03*
X3351000Y3467000D02*
D03*
X3543000Y3403000D02*
D03*
X3558000Y3142000D02*
D03*
X3424000Y3041000D02*
D03*
X3306000Y3100000D02*
D03*
X3368000Y2847000D02*
D03*
X3528000Y2936000D02*
D03*
X3266000Y3299000D02*
D03*
X3055000D02*
D03*
X3134000Y3103000D02*
D03*
X2952000Y3100000D02*
D03*
X3010000Y2915000D02*
D03*
X3226000Y2913000D02*
D03*
X2901000Y3299000D02*
D03*
X2707000Y3301000D02*
D03*
X2796000Y3099000D02*
D03*
X2810000Y2914000D02*
D03*
X2610000Y3078000D02*
D03*
X2572000Y2913000D02*
D03*
X2370000Y2915000D02*
D03*
X2264000Y2753000D02*
D03*
X2507000Y2750000D02*
D03*
X2117000Y2918000D02*
D03*
X2004000Y3029000D02*
D03*
X2164000Y3117000D02*
D03*
X2015000Y2770000D02*
D03*
X1998000Y2488000D02*
D03*
X2108000Y2489000D02*
D03*
X2086000Y2223000D02*
D03*
X2241912Y2182044D02*
D03*
X1969000Y1981000D02*
D03*
X1972000Y1884000D02*
D03*
X1795780Y2153158D02*
D03*
X1683004Y2134108D02*
D03*
X1753000Y2388000D02*
D03*
X1805000Y2347000D02*
D03*
X1649000Y2678000D02*
D03*
X1891000Y2899000D02*
D03*
X1787000Y3004000D02*
D03*
X2000000Y3313000D02*
D03*
X2107000Y3794000D02*
D03*
X1807000Y3900000D02*
D03*
X1605000Y3925000D02*
D03*
X1925000Y3806000D02*
D03*
X1886000Y3349000D02*
D03*
X1750000Y3347000D02*
D03*
X1654000Y3384000D02*
D03*
X1727000Y3184000D02*
D03*
X1884000Y3146000D02*
D03*
X1578000Y3644000D02*
D03*
X1336000Y3603000D02*
D03*
X1401000Y3383000D02*
D03*
X1386000Y3146000D02*
D03*
X1501000Y3036000D02*
D03*
X1162000Y3424000D02*
D03*
X1141000Y2886000D02*
D03*
X898000Y2827000D02*
D03*
X906000Y2700000D02*
D03*
X627000Y2215000D02*
D03*
X988822Y1937258D02*
D03*
X962914Y1854962D02*
D03*
X1159996Y1908978D02*
D03*
X1212896Y1963803D02*
D03*
X1243000Y2055000D02*
D03*
X1393444Y1977136D02*
D03*
X1452880Y1930654D02*
D03*
X1471000Y2246000D02*
D03*
X1370000Y2305000D02*
D03*
X1217000Y2291000D02*
D03*
X962000Y2218000D02*
D03*
X932000Y2348000D02*
D03*
X542000Y2835000D02*
D03*
X532000Y2968000D02*
D03*
X548000Y3277000D02*
D03*
X554000Y3410000D02*
D03*
X871000Y3726000D02*
D03*
Y3799000D02*
D03*
X1157000Y3585000D02*
D03*
X1386000Y3927000D02*
D03*
X500000Y1906000D02*
D03*
X2121000Y482000D02*
D03*
X1908400Y105000D02*
D03*
X1625320D02*
D03*
X2191480D02*
D03*
X2474560D02*
D03*
X1342240D02*
D03*
X1059160D02*
D03*
X776080D02*
D03*
X493000D02*
D03*
X7248000Y1496000D02*
D03*
X7294000Y1543000D02*
D03*
D89*
X3854000Y1364000D02*
D03*
X4071000D02*
D03*
X4288000D02*
D03*
Y1547000D02*
D03*
Y1732000D02*
D03*
X4071000D02*
D03*
Y1547000D02*
D03*
X3854000D02*
D03*
Y1732000D02*
D03*
%TF.MD5,1ce5ad2802daddeaf5ff972556802511*%
M02*
