%TF.GenerationSoftware,Altium Limited,Altium Designer,19.0.4 (130)*%
G04 Layer_Color=8388736*
%FSLAX45Y45*%
%MOMM*%
%TF.FileFunction,Soldermask,Top*%
%TF.Part,Single*%
G01*
G75*
%TA.AperFunction,ComponentPad*%
%ADD46O,1.70160X1.10160*%
%ADD47C,0.70160*%
%ADD48C,3.10002*%
%ADD49C,1.20002*%
%ADD50O,2.30160X1.10160*%
%TA.AperFunction,SMDPad,CuDef*%
%ADD57R,1.40320X1.60320*%
%ADD58R,0.80320X1.20320*%
%ADD59R,1.20320X0.80320*%
%ADD60O,0.83320X2.45321*%
%ADD61O,0.40320X0.90320*%
%ADD62O,0.90320X0.40320*%
%ADD63R,2.20320X3.20319*%
%ADD64O,0.90160X0.30160*%
%ADD65O,0.30160X0.90160*%
%ADD66R,5.70159X5.70159*%
%ADD67R,1.11161X0.40160*%
%ADD68R,1.00968X1.06721*%
%ADD69R,1.06721X1.00968*%
%ADD70R,0.90320X1.45321*%
%ADD71R,3.90320X1.30320*%
%ADD72R,1.90160X0.90160*%
%ADD73R,1.20320X1.60274*%
%ADD74R,1.00320X1.10320*%
%ADD75R,1.10320X1.00320*%
%ADD76R,1.00320X2.00320*%
D46*
X244992Y1449982D02*
D03*
X684005Y1485999D02*
D03*
Y2311982D02*
D03*
X244992Y2347999D02*
D03*
D47*
X674003Y1658978D02*
D03*
X673987Y1738948D02*
D03*
X744013Y1778991D02*
D03*
X744008Y1618991D02*
D03*
X743997Y1858960D02*
D03*
X744008Y1938980D02*
D03*
X743995Y2018952D02*
D03*
X674005Y1978995D02*
D03*
X673990Y2058965D02*
D03*
X673987Y1818958D02*
D03*
X674000Y2138985D02*
D03*
X744003Y2178980D02*
D03*
D48*
X2456999Y3850010D02*
D03*
X3343001D02*
D03*
X4656999D02*
D03*
X5543001D02*
D03*
X6850009Y3156999D02*
D03*
X6856999Y3850010D02*
D03*
X6850009Y1843001D02*
D03*
X1143001Y3850010D02*
D03*
D49*
X2000000Y3500000D02*
D03*
X2199999D02*
D03*
X2149987Y3650013D02*
D03*
X1900000D02*
D03*
X1700000D02*
D03*
X1800000Y3500000D02*
D03*
X1600000D02*
D03*
X1400001D02*
D03*
X1450013Y3650013D02*
D03*
X3600001Y3500000D02*
D03*
X3800000D02*
D03*
X3900000Y3650013D02*
D03*
X3650013D02*
D03*
X4100000D02*
D03*
X4199999Y3500000D02*
D03*
X4000000D02*
D03*
X4399999D02*
D03*
X4349986Y3650013D02*
D03*
X5850013D02*
D03*
X5800001Y3500000D02*
D03*
X6000000D02*
D03*
X6200000D02*
D03*
X6100000Y3650013D02*
D03*
X6300000D02*
D03*
X6549987D02*
D03*
X6599999Y3500000D02*
D03*
X6400000D02*
D03*
X6500000Y2899999D02*
D03*
Y2700000D02*
D03*
Y2500000D02*
D03*
Y2300000D02*
D03*
Y2100001D02*
D03*
X6650012Y2150013D02*
D03*
Y2400000D02*
D03*
Y2600000D02*
D03*
Y2849987D02*
D03*
D50*
X670993Y2667994D02*
D03*
X289002D02*
D03*
X670998Y3532006D02*
D03*
X289007D02*
D03*
D57*
X4908639Y2494001D02*
D03*
Y2714008D02*
D03*
X5078641Y2714015D02*
D03*
Y2494001D02*
D03*
D58*
X1911002Y2353013D02*
D03*
X2005998Y2353008D02*
D03*
X2100994Y2353003D02*
D03*
X2101009Y2613002D02*
D03*
X1911017Y2613013D02*
D03*
X2898002Y3646013D02*
D03*
X2992998Y3646008D02*
D03*
X3087994Y3646003D02*
D03*
X3088009Y3906002D02*
D03*
X2898017Y3906013D02*
D03*
X5092501Y3647013D02*
D03*
X5187497Y3647008D02*
D03*
X5282493Y3647003D02*
D03*
X5282509Y3907002D02*
D03*
X5092517Y3907013D02*
D03*
X7296001Y3647013D02*
D03*
X7390997Y3647008D02*
D03*
X7485993Y3647003D02*
D03*
X7486009Y3907002D02*
D03*
X7296017Y3907013D02*
D03*
D59*
X1507988Y2474017D02*
D03*
X1507998Y2664009D02*
D03*
X1767997Y2663993D02*
D03*
X1767992Y2568997D02*
D03*
X1767987Y2474001D02*
D03*
X6646013Y1406998D02*
D03*
X6646008Y1312002D02*
D03*
X6646003Y1217006D02*
D03*
X6906002Y1216991D02*
D03*
X6906012Y1406983D02*
D03*
D60*
X2119884Y310957D02*
D03*
X2246884D02*
D03*
X2373884D02*
D03*
X2500884D02*
D03*
Y1016955D02*
D03*
X2373884D02*
D03*
X2246884D02*
D03*
X2119884D02*
D03*
D61*
X1909745Y1673560D02*
D03*
X1949750D02*
D03*
X1990060D02*
D03*
X2029760D02*
D03*
Y2113559D02*
D03*
X1990060D02*
D03*
X1949750D02*
D03*
X1909760D02*
D03*
D62*
X1799760Y1713560D02*
D03*
Y1753565D02*
D03*
Y1793545D02*
D03*
X2139759Y1793540D02*
D03*
Y1753560D02*
D03*
Y1713560D02*
D03*
Y1833545D02*
D03*
Y1873550D02*
D03*
Y1913555D02*
D03*
Y1953560D02*
D03*
Y1993539D02*
D03*
Y2033544D02*
D03*
Y2073549D02*
D03*
X1799760Y2073559D02*
D03*
Y2033549D02*
D03*
Y1993544D02*
D03*
Y1953565D02*
D03*
Y1913560D02*
D03*
Y1873555D02*
D03*
Y1833550D02*
D03*
D63*
X1969770Y1893570D02*
D03*
D64*
X3614141Y1202868D02*
D03*
Y1242873D02*
D03*
Y1282878D02*
D03*
Y1322883D02*
D03*
Y1362888D02*
D03*
Y1402893D02*
D03*
Y1442872D02*
D03*
Y1482877D02*
D03*
Y1522882D02*
D03*
Y1562887D02*
D03*
Y1602867D02*
D03*
Y1642872D02*
D03*
Y1682877D02*
D03*
Y1722882D02*
D03*
Y1762887D02*
D03*
Y1802892D02*
D03*
Y1842872D02*
D03*
Y1882877D02*
D03*
Y1922882D02*
D03*
X4493997Y1442872D02*
D03*
Y1402893D02*
D03*
Y1362888D02*
D03*
Y1322883D02*
D03*
Y1282878D02*
D03*
Y1242873D02*
D03*
Y1202868D02*
D03*
Y1482877D02*
D03*
Y1522882D02*
D03*
Y1562887D02*
D03*
Y1602867D02*
D03*
Y1642872D02*
D03*
Y1682877D02*
D03*
Y1722882D02*
D03*
Y1762887D02*
D03*
Y1802892D02*
D03*
Y1842872D02*
D03*
Y1882877D02*
D03*
Y1922882D02*
D03*
D65*
X3694074Y1122959D02*
D03*
X3734079D02*
D03*
X3774084D02*
D03*
X3814064D02*
D03*
X3854069D02*
D03*
X3894074D02*
D03*
X3934079D02*
D03*
X3974084D02*
D03*
X4014064D02*
D03*
X4054069D02*
D03*
X4094074D02*
D03*
X4134079D02*
D03*
X4174084D02*
D03*
X4214063D02*
D03*
X4254068D02*
D03*
X4294073D02*
D03*
X4334078D02*
D03*
X4374083D02*
D03*
X4414088D02*
D03*
Y2002815D02*
D03*
X4374083D02*
D03*
X4334078D02*
D03*
X4294073D02*
D03*
X4254068D02*
D03*
X4214063D02*
D03*
X4174084D02*
D03*
X4134079D02*
D03*
X4094074D02*
D03*
X4054069D02*
D03*
X4014064D02*
D03*
X3974084D02*
D03*
X3934079D02*
D03*
X3894074D02*
D03*
X3854069D02*
D03*
X3814064D02*
D03*
X3774084D02*
D03*
X3734079D02*
D03*
X3694074D02*
D03*
D66*
X4054094Y1562862D02*
D03*
D67*
X865006Y1623997D02*
D03*
Y1673984D02*
D03*
Y1723997D02*
D03*
Y1773984D02*
D03*
Y1823997D02*
D03*
Y1873984D02*
D03*
Y1923997D02*
D03*
Y1973984D02*
D03*
Y2023996D02*
D03*
Y2073984D02*
D03*
Y2123996D02*
D03*
Y2173983D02*
D03*
D68*
X1736573Y1531366D02*
D03*
X1887220D02*
D03*
X2043544D02*
D03*
X2194192D02*
D03*
X2755936Y981710D02*
D03*
X2906583D02*
D03*
X2909316Y833628D02*
D03*
X2758669D02*
D03*
X2769850Y1145286D02*
D03*
X2920497D02*
D03*
Y1297686D02*
D03*
X2769850D02*
D03*
X2782545Y2183892D02*
D03*
Y2332990D02*
D03*
X2933192D02*
D03*
Y2183892D02*
D03*
X2417907Y2648000D02*
D03*
X2267259D02*
D03*
Y2332000D02*
D03*
X2417907D02*
D03*
X1533324Y2819000D02*
D03*
X1382676D02*
D03*
X2935676Y3494000D02*
D03*
X3086324D02*
D03*
X5132676Y3503000D02*
D03*
X5283324D02*
D03*
X6804000Y1591000D02*
D03*
X6954648D02*
D03*
X6921009Y970873D02*
D03*
X6770362D02*
D03*
Y729248D02*
D03*
X6921009D02*
D03*
Y487623D02*
D03*
X6770362D02*
D03*
Y245998D02*
D03*
X6921009D02*
D03*
X5274450Y705104D02*
D03*
X5123802D02*
D03*
X7334676Y3493000D02*
D03*
X7485324D02*
D03*
D69*
X1372000Y2493676D02*
D03*
Y2644324D02*
D03*
X1229000Y2948324D02*
D03*
X1044000Y2948647D02*
D03*
Y2798000D02*
D03*
X1229000Y2797676D02*
D03*
X590000Y3745676D02*
D03*
Y3896324D02*
D03*
X432000D02*
D03*
Y3745676D02*
D03*
X2608000Y2668324D02*
D03*
Y2517676D02*
D03*
X2715000Y3802676D02*
D03*
Y3953324D02*
D03*
X4417000Y2664324D02*
D03*
X4566000D02*
D03*
Y2513676D02*
D03*
X4417000D02*
D03*
X4913000Y3802000D02*
D03*
Y3952647D02*
D03*
X7109000Y3803000D02*
D03*
Y3953647D02*
D03*
X6494000Y1392000D02*
D03*
Y1241353D02*
D03*
X4545838Y494693D02*
D03*
X4387088D02*
D03*
Y344046D02*
D03*
X4545838D02*
D03*
X4228338Y494693D02*
D03*
Y344046D02*
D03*
X3911092Y494693D02*
D03*
Y344046D02*
D03*
D70*
X1042999Y2447005D02*
D03*
X1233001D02*
D03*
X1138000Y2646995D02*
D03*
D71*
X3431032Y344932D02*
D03*
Y644932D02*
D03*
D72*
X711000Y2824994D02*
D03*
Y2948006D02*
D03*
Y3049987D02*
D03*
Y3149987D02*
D03*
Y3251993D02*
D03*
Y3375006D02*
D03*
D73*
X6345726Y245998D02*
D03*
X6555784D02*
D03*
Y487623D02*
D03*
X6345726D02*
D03*
Y729248D02*
D03*
X6555784D02*
D03*
Y970873D02*
D03*
X6345726D02*
D03*
D74*
X1579010Y2309000D02*
D03*
X1718990D02*
D03*
X2271010Y2490000D02*
D03*
X2410990D02*
D03*
X2780756Y1933956D02*
D03*
X2920736D02*
D03*
Y1698244D02*
D03*
X2780756D02*
D03*
Y1462532D02*
D03*
X2920736D02*
D03*
X2486546Y3141980D02*
D03*
X2346566D02*
D03*
X2345296Y3286506D02*
D03*
X2485276D02*
D03*
X5136363Y1033272D02*
D03*
X5276342D02*
D03*
Y866394D02*
D03*
X5136363D02*
D03*
X5136248Y1267206D02*
D03*
X5276228D02*
D03*
X5276342Y1664970D02*
D03*
X5136363D02*
D03*
Y1903559D02*
D03*
X5276342D02*
D03*
Y2142147D02*
D03*
X5136363D02*
D03*
X6146660Y3141980D02*
D03*
X6286640D02*
D03*
X6286894Y3289046D02*
D03*
X6146914D02*
D03*
X6504010Y1592000D02*
D03*
X6643990D02*
D03*
D75*
X2758669Y360427D02*
D03*
X2937925D02*
D03*
X3117596Y364604D02*
D03*
Y504584D02*
D03*
X2937925Y500406D02*
D03*
X2758669D02*
D03*
X3751580Y347840D02*
D03*
X4070350Y346291D02*
D03*
Y486270D02*
D03*
X3751580Y487820D02*
D03*
X4703312Y346291D02*
D03*
X4870195D02*
D03*
Y486270D02*
D03*
X4703312D02*
D03*
X6140958Y1861934D02*
D03*
Y2001914D02*
D03*
X6285738Y2002028D02*
D03*
Y1862049D02*
D03*
X5263388Y2523096D02*
D03*
Y2663076D02*
D03*
X4726686D02*
D03*
Y2523096D02*
D03*
X4373292Y3149206D02*
D03*
Y3289186D02*
D03*
X4910000Y3506010D02*
D03*
Y3645990D02*
D03*
X4226988Y3288424D02*
D03*
Y3148444D02*
D03*
X3630000Y2664990D02*
D03*
Y2525010D02*
D03*
X3973000D02*
D03*
Y2664990D02*
D03*
X4196000D02*
D03*
Y2525010D02*
D03*
X3265424D02*
D03*
Y2664990D02*
D03*
X3099523Y2665247D02*
D03*
Y2525268D02*
D03*
X2935654D02*
D03*
Y2665247D02*
D03*
X2769000Y2664990D02*
D03*
Y2525010D02*
D03*
X2714000Y3503021D02*
D03*
Y3643000D02*
D03*
X7109000Y3649000D02*
D03*
Y3509021D02*
D03*
D76*
X2898000Y4090000D02*
D03*
Y4580000D02*
D03*
X5090000Y4090000D02*
D03*
Y4580000D02*
D03*
%TF.MD5,ef863720338c3cd95f89c9565a501a4b*%
M02*
