%TF.GenerationSoftware,Altium Limited,Altium Designer,19.0.4 (130)*%
G04 Layer_Physical_Order=2*
G04 Layer_Color=16711680*
%FSLAX45Y45*%
%MOMM*%
%TF.FileFunction,Copper,L2,Bot,Signal*%
%TF.Part,Single*%
G01*
G75*
%TA.AperFunction,Conductor*%
%ADD10C,0.21946*%
%ADD31C,0.38100*%
%ADD32C,0.80000*%
%ADD33C,0.20320*%
%ADD34C,0.50800*%
%ADD35C,0.76200*%
%ADD36C,1.00000*%
%ADD37C,0.25400*%
%TA.AperFunction,ComponentPad*%
%ADD39O,1.60000X1.00000*%
%ADD40C,0.60000*%
%ADD41C,2.99999*%
%ADD42C,1.10000*%
%ADD43O,2.20000X1.00000*%
%TA.AperFunction,ViaPad*%
%ADD44C,0.50000*%
%ADD45C,1.27000*%
G36*
X7657810Y4964999D02*
X7714197Y4951462D01*
X7767772Y4929271D01*
X7817216Y4898971D01*
X7861311Y4861311D01*
X7898972Y4817215D01*
X7929271Y4767772D01*
X7951462Y4714197D01*
X7965000Y4657810D01*
X7969418Y4601669D01*
X7969086Y4600000D01*
Y400000D01*
X7969418Y398331D01*
X7965000Y342190D01*
X7951462Y285803D01*
X7929271Y232228D01*
X7898972Y182784D01*
X7861311Y138689D01*
X7817216Y101029D01*
X7767772Y70729D01*
X7714197Y48538D01*
X7657810Y35000D01*
X7601669Y30582D01*
X7600000Y30914D01*
X400000D01*
X398331Y30582D01*
X342190Y35000D01*
X285803Y48538D01*
X232228Y70729D01*
X182784Y101029D01*
X138689Y138689D01*
X101029Y182784D01*
X70729Y232228D01*
X48538Y285803D01*
X35000Y342190D01*
X30582Y398331D01*
X30914Y400000D01*
Y4600000D01*
X30582Y4601669D01*
X35000Y4657810D01*
X48538Y4714196D01*
X70729Y4767771D01*
X101028Y4817215D01*
X138689Y4861310D01*
X182784Y4898971D01*
X232228Y4929270D01*
X285803Y4951461D01*
X342189Y4964998D01*
X398331Y4969417D01*
X400000Y4969085D01*
X7600000Y4969086D01*
X7601669Y4969418D01*
X7657810Y4964999D01*
D02*
G37*
%LPC*%
G36*
X7614774Y4770718D02*
X7585226D01*
X7583225Y4770320D01*
X7581184D01*
X7552205Y4764555D01*
X7550319Y4763774D01*
X7548318Y4763376D01*
X7521020Y4752069D01*
X7519323Y4750935D01*
X7517438Y4750154D01*
X7492870Y4733739D01*
X7491428Y4732296D01*
X7489731Y4731162D01*
X7468837Y4710269D01*
X7467703Y4708571D01*
X7466261Y4707130D01*
X7449845Y4682562D01*
X7449065Y4680677D01*
X7447931Y4678980D01*
X7436623Y4651682D01*
X7436225Y4649680D01*
X7435444Y4647795D01*
X7429680Y4618816D01*
Y4616775D01*
X7429282Y4614774D01*
Y4585226D01*
X7429680Y4583225D01*
Y4581184D01*
X7435444Y4552205D01*
X7436225Y4550319D01*
X7436623Y4548318D01*
X7447931Y4521020D01*
X7449065Y4519323D01*
X7449845Y4517438D01*
X7466261Y4492870D01*
X7467704Y4491428D01*
X7468837Y4489731D01*
X7489731Y4468837D01*
X7491428Y4467703D01*
X7492870Y4466261D01*
X7517438Y4449845D01*
X7519323Y4449065D01*
X7521020Y4447931D01*
X7548318Y4436623D01*
X7550319Y4436225D01*
X7552205Y4435444D01*
X7581184Y4429680D01*
X7583225D01*
X7585226Y4429282D01*
X7614774D01*
X7616775Y4429680D01*
X7618816D01*
X7647795Y4435444D01*
X7649681Y4436225D01*
X7651682Y4436623D01*
X7678980Y4447931D01*
X7680677Y4449065D01*
X7682562Y4449845D01*
X7707130Y4466261D01*
X7708572Y4467704D01*
X7710269Y4468837D01*
X7731162Y4489730D01*
X7732297Y4491428D01*
X7733739Y4492870D01*
X7750154Y4517438D01*
X7750935Y4519323D01*
X7752069Y4521020D01*
X7763376Y4548318D01*
X7763774Y4550319D01*
X7764555Y4552205D01*
X7770320Y4581184D01*
Y4583225D01*
X7770718Y4585226D01*
Y4614774D01*
X7770320Y4616775D01*
Y4618816D01*
X7764555Y4647795D01*
X7763774Y4649681D01*
X7763376Y4651682D01*
X7752069Y4678980D01*
X7750935Y4680677D01*
X7750154Y4682562D01*
X7733739Y4707130D01*
X7732296Y4708572D01*
X7731162Y4710269D01*
X7710269Y4731162D01*
X7708572Y4732297D01*
X7707130Y4733739D01*
X7682562Y4750154D01*
X7680677Y4750935D01*
X7678980Y4752069D01*
X7651682Y4763376D01*
X7649681Y4763774D01*
X7647795Y4764555D01*
X7618816Y4770320D01*
X7616775D01*
X7614774Y4770718D01*
D02*
G37*
G36*
X414773Y4770717D02*
X385226D01*
X383225Y4770319D01*
X381183D01*
X352204Y4764555D01*
X350319Y4763774D01*
X348318Y4763376D01*
X321019Y4752068D01*
X319322Y4750935D01*
X317438Y4750154D01*
X292870Y4733738D01*
X291427Y4732296D01*
X289730Y4731162D01*
X268837Y4710269D01*
X267703Y4708571D01*
X266261Y4707129D01*
X249845Y4682561D01*
X249064Y4680676D01*
X247930Y4678979D01*
X236623Y4651681D01*
X236225Y4649680D01*
X235444Y4647794D01*
X229679Y4618815D01*
Y4616774D01*
X229281Y4614773D01*
Y4585226D01*
X229679Y4583224D01*
Y4581184D01*
X235444Y4552204D01*
X236225Y4550318D01*
X236623Y4548318D01*
X247930Y4521019D01*
X249064Y4519322D01*
X249845Y4517437D01*
X266261Y4492870D01*
X267703Y4491427D01*
X268837Y4489730D01*
X289730Y4468837D01*
X291428Y4467703D01*
X292870Y4466261D01*
X317438Y4449845D01*
X319322Y4449064D01*
X321019Y4447930D01*
X348318Y4436623D01*
X350319Y4436225D01*
X352204Y4435444D01*
X381184Y4429679D01*
X383224D01*
X385226Y4429281D01*
X414773D01*
X416774Y4429679D01*
X418815D01*
X447795Y4435444D01*
X449680Y4436225D01*
X451681Y4436623D01*
X478979Y4447930D01*
X480676Y4449064D01*
X482561Y4449845D01*
X507129Y4466261D01*
X508572Y4467703D01*
X510268Y4468837D01*
X531162Y4489730D01*
X532296Y4491428D01*
X533738Y4492870D01*
X550154Y4517437D01*
X550935Y4519322D01*
X552068Y4521019D01*
X563376Y4548318D01*
X563774Y4550319D01*
X564555Y4552204D01*
X570319Y4581184D01*
Y4583225D01*
X570717Y4585226D01*
Y4614773D01*
X570319Y4616774D01*
Y4618815D01*
X564555Y4647795D01*
X563774Y4649680D01*
X563376Y4651681D01*
X552068Y4678979D01*
X550935Y4680676D01*
X550154Y4682561D01*
X533738Y4707129D01*
X532296Y4708571D01*
X531162Y4710268D01*
X510269Y4731162D01*
X508571Y4732296D01*
X507129Y4733738D01*
X482561Y4750154D01*
X480676Y4750935D01*
X478979Y4752068D01*
X451681Y4763376D01*
X449680Y4763774D01*
X447795Y4764555D01*
X418815Y4770319D01*
X416774D01*
X414773Y4770717D01*
D02*
G37*
G36*
X6876049Y4024382D02*
Y3869060D01*
X7031371D01*
X7029861Y3884394D01*
X7019831Y3917457D01*
X7003544Y3947928D01*
X6981625Y3974636D01*
X6954917Y3996555D01*
X6924446Y4012842D01*
X6891383Y4022871D01*
X6876049Y4024382D01*
D02*
G37*
G36*
X5562052D02*
Y3869060D01*
X5717373D01*
X5715863Y3884394D01*
X5705833Y3917457D01*
X5689546Y3947928D01*
X5667627Y3974636D01*
X5640919Y3996555D01*
X5610449Y4012842D01*
X5577385Y4022871D01*
X5562052Y4024382D01*
D02*
G37*
G36*
X1162051D02*
Y3869060D01*
X1317373D01*
X1315863Y3884394D01*
X1305833Y3917457D01*
X1289546Y3947928D01*
X1267627Y3974636D01*
X1240919Y3996555D01*
X1210448Y4012842D01*
X1177385Y4022871D01*
X1162051Y4024382D01*
D02*
G37*
G36*
X2476049D02*
Y3869060D01*
X2631371D01*
X2629861Y3884394D01*
X2619831Y3917457D01*
X2603544Y3947928D01*
X2581625Y3974636D01*
X2554917Y3996555D01*
X2524446Y4012842D01*
X2491383Y4022871D01*
X2476049Y4024382D01*
D02*
G37*
G36*
X4676048D02*
Y3869060D01*
X4831371D01*
X4829861Y3884394D01*
X4819831Y3917457D01*
X4803544Y3947928D01*
X4781625Y3974636D01*
X4754917Y3996555D01*
X4724446Y4012842D01*
X4691383Y4022871D01*
X4676048Y4024382D01*
D02*
G37*
G36*
X3362050D02*
Y3869060D01*
X3517373D01*
X3515863Y3884394D01*
X3505833Y3917457D01*
X3489546Y3947928D01*
X3467627Y3974636D01*
X3440919Y3996555D01*
X3410448Y4012842D01*
X3377385Y4022871D01*
X3362050Y4024382D01*
D02*
G37*
G36*
X4637948D02*
X4622615Y4022871D01*
X4589551Y4012842D01*
X4559081Y3996555D01*
X4532372Y3974636D01*
X4510454Y3947928D01*
X4494167Y3917457D01*
X4484137Y3884394D01*
X4482627Y3869060D01*
X4637948D01*
Y4024382D01*
D02*
G37*
G36*
X3323950D02*
X3308617Y4022871D01*
X3275554Y4012842D01*
X3245083Y3996555D01*
X3218375Y3974636D01*
X3196456Y3947928D01*
X3180169Y3917457D01*
X3170139Y3884394D01*
X3168629Y3869060D01*
X3323950D01*
Y4024382D01*
D02*
G37*
G36*
X1123951D02*
X1108617Y4022871D01*
X1075554Y4012842D01*
X1045083Y3996555D01*
X1018375Y3974636D01*
X996456Y3947928D01*
X980169Y3917457D01*
X970139Y3884394D01*
X968629Y3869060D01*
X1123951D01*
Y4024382D01*
D02*
G37*
G36*
X2437949D02*
X2422615Y4022871D01*
X2389551Y4012842D01*
X2359081Y3996555D01*
X2332373Y3974636D01*
X2310454Y3947928D01*
X2294167Y3917457D01*
X2284137Y3884394D01*
X2282627Y3869060D01*
X2437949D01*
Y4024382D01*
D02*
G37*
G36*
X6837949D02*
X6822615Y4022871D01*
X6789552Y4012842D01*
X6759081Y3996555D01*
X6732373Y3974636D01*
X6710454Y3947928D01*
X6694167Y3917457D01*
X6684137Y3884394D01*
X6682627Y3869060D01*
X6837949D01*
Y4024382D01*
D02*
G37*
G36*
X5523952D02*
X5508617Y4022871D01*
X5475554Y4012842D01*
X5445083Y3996555D01*
X5418375Y3974636D01*
X5396456Y3947928D01*
X5380169Y3917457D01*
X5370139Y3884394D01*
X5368629Y3869060D01*
X5523952D01*
Y4024382D01*
D02*
G37*
G36*
X7031371Y3830960D02*
X6876049D01*
Y3675638D01*
X6891383Y3677148D01*
X6924446Y3687177D01*
X6954917Y3703465D01*
X6981625Y3725383D01*
X7003544Y3752091D01*
X7019831Y3782562D01*
X7029861Y3815625D01*
X7031371Y3830960D01*
D02*
G37*
G36*
X5717373D02*
X5562052D01*
Y3675638D01*
X5577385Y3677148D01*
X5610449Y3687177D01*
X5640919Y3703465D01*
X5667627Y3725383D01*
X5689546Y3752091D01*
X5705833Y3782562D01*
X5715863Y3815625D01*
X5717373Y3830960D01*
D02*
G37*
G36*
X4637948D02*
X4482627D01*
X4484137Y3815625D01*
X4494167Y3782562D01*
X4510454Y3752091D01*
X4532372Y3725383D01*
X4559081Y3703465D01*
X4589551Y3687177D01*
X4622615Y3677148D01*
X4637948Y3675638D01*
Y3830960D01*
D02*
G37*
G36*
X3323950D02*
X3168629D01*
X3170139Y3815625D01*
X3180169Y3782562D01*
X3196456Y3752091D01*
X3218375Y3725383D01*
X3245083Y3703465D01*
X3275554Y3687177D01*
X3308617Y3677148D01*
X3323950Y3675638D01*
Y3830960D01*
D02*
G37*
G36*
X2631371D02*
X2476049D01*
Y3675638D01*
X2491383Y3677148D01*
X2524446Y3687177D01*
X2554917Y3703465D01*
X2581625Y3725383D01*
X2603544Y3752091D01*
X2619831Y3782562D01*
X2629861Y3815625D01*
X2631371Y3830960D01*
D02*
G37*
G36*
X1317373D02*
X1162051D01*
Y3675638D01*
X1177385Y3677148D01*
X1210448Y3687177D01*
X1240919Y3703465D01*
X1267627Y3725383D01*
X1289546Y3752091D01*
X1305833Y3782562D01*
X1315863Y3815625D01*
X1317373Y3830960D01*
D02*
G37*
G36*
X2437949D02*
X2282627D01*
X2284137Y3815625D01*
X2294167Y3782562D01*
X2310454Y3752091D01*
X2332373Y3725383D01*
X2359081Y3703465D01*
X2389551Y3687177D01*
X2422615Y3677148D01*
X2437949Y3675638D01*
Y3830960D01*
D02*
G37*
G36*
X1123951D02*
X968629D01*
X970139Y3815625D01*
X980169Y3782562D01*
X996456Y3752091D01*
X1018375Y3725383D01*
X1045083Y3703465D01*
X1075554Y3687177D01*
X1108617Y3677148D01*
X1123951Y3675638D01*
Y3830960D01*
D02*
G37*
G36*
X4831371D02*
X4676048D01*
Y3675638D01*
X4691383Y3677148D01*
X4724446Y3687177D01*
X4754917Y3703465D01*
X4781625Y3725383D01*
X4803544Y3752091D01*
X4819831Y3782562D01*
X4829861Y3815625D01*
X4831371Y3830960D01*
D02*
G37*
G36*
X3517373D02*
X3362050D01*
Y3675638D01*
X3377385Y3677148D01*
X3410448Y3687177D01*
X3440919Y3703465D01*
X3467627Y3725383D01*
X3489546Y3752091D01*
X3505833Y3782562D01*
X3515863Y3815625D01*
X3517373Y3830960D01*
D02*
G37*
G36*
X6837949D02*
X6682627D01*
X6684137Y3815625D01*
X6694167Y3782562D01*
X6710454Y3752091D01*
X6732373Y3725383D01*
X6759081Y3703465D01*
X6789552Y3687177D01*
X6822615Y3677148D01*
X6837949Y3675638D01*
Y3830960D01*
D02*
G37*
G36*
X5523952D02*
X5368629D01*
X5370139Y3815625D01*
X5380169Y3782562D01*
X5396456Y3752091D01*
X5418375Y3725383D01*
X5445083Y3703465D01*
X5475554Y3687177D01*
X5508617Y3677148D01*
X5523952Y3675638D01*
Y3830960D01*
D02*
G37*
G36*
X3669064Y3728598D02*
Y3669064D01*
X3728599D01*
X3728344Y3671001D01*
X3720242Y3690559D01*
X3707355Y3707354D01*
X3690560Y3720241D01*
X3671002Y3728343D01*
X3669064Y3728598D01*
D02*
G37*
G36*
X5869063D02*
Y3669064D01*
X5928599D01*
X5928344Y3671001D01*
X5920242Y3690559D01*
X5907355Y3707354D01*
X5890560Y3720241D01*
X5871002Y3728343D01*
X5869063Y3728598D01*
D02*
G37*
G36*
X1469062D02*
Y3669064D01*
X1528599D01*
X1528344Y3671001D01*
X1520242Y3690559D01*
X1507355Y3707354D01*
X1490560Y3720241D01*
X1471002Y3728343D01*
X1469062Y3728598D01*
D02*
G37*
G36*
X1430962Y3728598D02*
X1429025Y3728343D01*
X1409467Y3720241D01*
X1392672Y3707354D01*
X1379784Y3690559D01*
X1371683Y3671001D01*
X1371428Y3669064D01*
X1430962D01*
Y3728598D01*
D02*
G37*
G36*
X5830963Y3728598D02*
X5829025Y3728343D01*
X5809467Y3720241D01*
X5792672Y3707354D01*
X5779784Y3690559D01*
X5771683Y3671001D01*
X5771428Y3669064D01*
X5830963D01*
Y3728598D01*
D02*
G37*
G36*
X3630964D02*
X3629025Y3728343D01*
X3609466Y3720241D01*
X3592672Y3707354D01*
X3579784Y3690559D01*
X3571683Y3671001D01*
X3571428Y3669064D01*
X3630964D01*
Y3728598D01*
D02*
G37*
G36*
X870000Y3863927D02*
X851643Y3861510D01*
X834537Y3854424D01*
X819847Y3843153D01*
X808576Y3828463D01*
X801490Y3811357D01*
X799073Y3793000D01*
Y3732596D01*
X798073Y3725000D01*
Y3589311D01*
X785373Y3585000D01*
X784774Y3585781D01*
X769023Y3597867D01*
X750681Y3605465D01*
X730998Y3608056D01*
X690048D01*
Y3532006D01*
Y3455955D01*
X730998D01*
X750681Y3458546D01*
X769023Y3466144D01*
X784774Y3478230D01*
X785373Y3479011D01*
X798073Y3474700D01*
Y3286000D01*
X800490Y3267643D01*
X807576Y3250536D01*
X818847Y3235847D01*
X1744954Y2309740D01*
X1754847Y2296847D01*
X1769537Y2285576D01*
X1786643Y2278490D01*
X1805000Y2276073D01*
X1823357Y2278490D01*
X1840463Y2285576D01*
X1855153Y2296847D01*
X1866424Y2311537D01*
X1873510Y2328643D01*
X1875927Y2347000D01*
Y2350000D01*
X1873510Y2368357D01*
X1866424Y2385463D01*
X1855153Y2400153D01*
X939927Y3315379D01*
Y3718404D01*
X940927Y3726000D01*
Y3793000D01*
X938510Y3811357D01*
X931424Y3828463D01*
X920153Y3843153D01*
X905463Y3854424D01*
X888357Y3861510D01*
X870000Y3863927D01*
D02*
G37*
G36*
X6300000Y3725982D02*
X6280337Y3723394D01*
X6262015Y3715804D01*
X6246281Y3703731D01*
X6234208Y3687997D01*
X6226618Y3669675D01*
X6224030Y3650013D01*
X6226618Y3630350D01*
X6234208Y3612028D01*
X6246281Y3596294D01*
X6262015Y3584221D01*
X6280337Y3576631D01*
X6300000Y3574043D01*
X6319662Y3576631D01*
X6337985Y3584221D01*
X6353719Y3596294D01*
X6365792Y3612028D01*
X6373381Y3630350D01*
X6375970Y3650013D01*
X6373381Y3669675D01*
X6365792Y3687997D01*
X6353719Y3703731D01*
X6337985Y3715804D01*
X6319662Y3723394D01*
X6300000Y3725982D01*
D02*
G37*
G36*
X6100000D02*
X6080338Y3723394D01*
X6062015Y3715804D01*
X6046282Y3703731D01*
X6034208Y3687997D01*
X6026619Y3669675D01*
X6024030Y3650013D01*
X6026619Y3630350D01*
X6034208Y3612028D01*
X6046282Y3596294D01*
X6062015Y3584221D01*
X6080338Y3576631D01*
X6100000Y3574043D01*
X6119663Y3576631D01*
X6137985Y3584221D01*
X6153719Y3596294D01*
X6165792Y3612028D01*
X6173382Y3630350D01*
X6175970Y3650013D01*
X6173382Y3669675D01*
X6165792Y3687997D01*
X6153719Y3703731D01*
X6137985Y3715804D01*
X6119663Y3723394D01*
X6100000Y3725982D01*
D02*
G37*
G36*
X4100000D02*
X4080337Y3723394D01*
X4062015Y3715804D01*
X4046281Y3703731D01*
X4034208Y3687997D01*
X4026618Y3669675D01*
X4024030Y3650013D01*
X4026618Y3630350D01*
X4034208Y3612028D01*
X4046281Y3596294D01*
X4062015Y3584221D01*
X4080337Y3576631D01*
X4100000Y3574043D01*
X4119662Y3576631D01*
X4137985Y3584221D01*
X4153718Y3596294D01*
X4165792Y3612028D01*
X4173381Y3630350D01*
X4175970Y3650013D01*
X4173381Y3669675D01*
X4165792Y3687997D01*
X4153718Y3703731D01*
X4137985Y3715804D01*
X4119662Y3723394D01*
X4100000Y3725982D01*
D02*
G37*
G36*
X3900000D02*
X3880338Y3723394D01*
X3862015Y3715804D01*
X3846281Y3703731D01*
X3834208Y3687997D01*
X3826619Y3669675D01*
X3824030Y3650013D01*
X3826619Y3630350D01*
X3834208Y3612028D01*
X3846281Y3596294D01*
X3862015Y3584221D01*
X3880338Y3576631D01*
X3900000Y3574043D01*
X3919662Y3576631D01*
X3937985Y3584221D01*
X3953719Y3596294D01*
X3965792Y3612028D01*
X3973381Y3630350D01*
X3975970Y3650013D01*
X3973381Y3669675D01*
X3965792Y3687997D01*
X3953719Y3703731D01*
X3937985Y3715804D01*
X3919662Y3723394D01*
X3900000Y3725982D01*
D02*
G37*
G36*
X1900000D02*
X1880337Y3723394D01*
X1862015Y3715804D01*
X1846281Y3703731D01*
X1834208Y3687997D01*
X1826618Y3669675D01*
X1824030Y3650013D01*
X1826618Y3630350D01*
X1834208Y3612028D01*
X1846281Y3596294D01*
X1862015Y3584221D01*
X1880337Y3576631D01*
X1900000Y3574043D01*
X1919662Y3576631D01*
X1937985Y3584221D01*
X1953718Y3596294D01*
X1965792Y3612028D01*
X1973381Y3630350D01*
X1975970Y3650013D01*
X1973381Y3669675D01*
X1965792Y3687997D01*
X1953718Y3703731D01*
X1937985Y3715804D01*
X1919662Y3723394D01*
X1900000Y3725982D01*
D02*
G37*
G36*
X1700000D02*
X1680338Y3723394D01*
X1662015Y3715804D01*
X1646281Y3703731D01*
X1634208Y3687997D01*
X1626619Y3669675D01*
X1624030Y3650013D01*
X1626619Y3630350D01*
X1634208Y3612028D01*
X1646281Y3596294D01*
X1662015Y3584221D01*
X1680338Y3576631D01*
X1700000Y3574043D01*
X1719663Y3576631D01*
X1737985Y3584221D01*
X1753719Y3596294D01*
X1765792Y3612028D01*
X1773382Y3630350D01*
X1775970Y3650013D01*
X1773382Y3669675D01*
X1765792Y3687997D01*
X1753719Y3703731D01*
X1737985Y3715804D01*
X1719663Y3723394D01*
X1700000Y3725982D01*
D02*
G37*
G36*
X651948Y3608056D02*
X610998D01*
X591315Y3605465D01*
X572973Y3597867D01*
X557222Y3585781D01*
X545136Y3570031D01*
X537539Y3551689D01*
X537455Y3551056D01*
X651948D01*
Y3608056D01*
D02*
G37*
G36*
X349007D02*
X308057D01*
Y3551056D01*
X422550D01*
X422467Y3551689D01*
X414869Y3570031D01*
X402783Y3585781D01*
X387032Y3597867D01*
X368691Y3605465D01*
X349007Y3608056D01*
D02*
G37*
G36*
X269957D02*
X229007D01*
X209324Y3605465D01*
X190982Y3597867D01*
X175232Y3585781D01*
X163146Y3570031D01*
X155548Y3551689D01*
X155465Y3551056D01*
X269957D01*
Y3608056D01*
D02*
G37*
G36*
X1819051Y3578585D02*
Y3519051D01*
X1878585D01*
X1878330Y3520989D01*
X1870229Y3540547D01*
X1857342Y3557342D01*
X1840547Y3570229D01*
X1820988Y3578330D01*
X1819051Y3578585D01*
D02*
G37*
G36*
X4019050Y3578586D02*
Y3519051D01*
X4078585D01*
X4078330Y3520989D01*
X4070229Y3540547D01*
X4057342Y3557342D01*
X4040547Y3570229D01*
X4020988Y3578330D01*
X4019050Y3578586D01*
D02*
G37*
G36*
X6219050D02*
Y3519051D01*
X6278585D01*
X6278330Y3520989D01*
X6270229Y3540547D01*
X6257342Y3557342D01*
X6240547Y3570229D01*
X6220989Y3578330D01*
X6219050Y3578586D01*
D02*
G37*
G36*
X6180950D02*
X6179012Y3578330D01*
X6159453Y3570229D01*
X6142658Y3557342D01*
X6129771Y3540547D01*
X6121670Y3520989D01*
X6121415Y3519051D01*
X6180950D01*
Y3578586D01*
D02*
G37*
G36*
X3980950D02*
X3979011Y3578330D01*
X3959453Y3570229D01*
X3942658Y3557342D01*
X3929771Y3540547D01*
X3921670Y3520989D01*
X3921415Y3519051D01*
X3980950D01*
Y3578586D01*
D02*
G37*
G36*
X1780951D02*
X1779011Y3578330D01*
X1759453Y3570229D01*
X1742658Y3557342D01*
X1729771Y3540547D01*
X1721670Y3520989D01*
X1721415Y3519051D01*
X1780951D01*
Y3578586D01*
D02*
G37*
G36*
X651948Y3512956D02*
X537455D01*
X537539Y3512322D01*
X545136Y3493980D01*
X557222Y3478230D01*
X572973Y3466144D01*
X591315Y3458546D01*
X610998Y3455955D01*
X651948D01*
Y3512956D01*
D02*
G37*
G36*
X422550D02*
X308057D01*
Y3455955D01*
X349007D01*
X368691Y3458546D01*
X387032Y3466144D01*
X402783Y3478230D01*
X414869Y3493980D01*
X422467Y3512322D01*
X422550Y3512956D01*
D02*
G37*
G36*
X269957D02*
X155465D01*
X155548Y3512322D01*
X163146Y3493980D01*
X175232Y3478230D01*
X190982Y3466144D01*
X209324Y3458546D01*
X229007Y3455955D01*
X269957D01*
Y3512956D01*
D02*
G37*
G36*
X6549987Y3725982D02*
X6530324Y3723394D01*
X6512002Y3715804D01*
X6496268Y3703731D01*
X6484195Y3687997D01*
X6476605Y3669675D01*
X6474017Y3650013D01*
X6476605Y3630350D01*
X6484195Y3612028D01*
X6496268Y3596294D01*
X6512002Y3584221D01*
X6530324Y3576631D01*
X6549987Y3574043D01*
X6552302Y3574347D01*
X6557334Y3562200D01*
X6546281Y3553719D01*
X6534207Y3537985D01*
X6526618Y3519663D01*
X6524029Y3500000D01*
X6526618Y3480338D01*
X6534207Y3462015D01*
X6546281Y3446281D01*
X6562014Y3434208D01*
X6580337Y3426619D01*
X6599999Y3424030D01*
X6619662Y3426619D01*
X6637984Y3434208D01*
X6653718Y3446281D01*
X6665791Y3462015D01*
X6673381Y3480338D01*
X6675969Y3500000D01*
X6673381Y3519663D01*
X6665791Y3537985D01*
X6653718Y3553719D01*
X6637984Y3565792D01*
X6619662Y3573381D01*
X6599999Y3575970D01*
X6597684Y3575665D01*
X6592652Y3587812D01*
X6603705Y3596294D01*
X6615778Y3612028D01*
X6623368Y3630350D01*
X6625957Y3650013D01*
X6623368Y3669675D01*
X6615778Y3687997D01*
X6603705Y3703731D01*
X6587972Y3715804D01*
X6569649Y3723394D01*
X6549987Y3725982D01*
D02*
G37*
G36*
X6400000Y3575970D02*
X6380337Y3573381D01*
X6362015Y3565792D01*
X6346281Y3553719D01*
X6334208Y3537985D01*
X6326618Y3519663D01*
X6324030Y3500000D01*
X6326618Y3480338D01*
X6334208Y3462015D01*
X6346281Y3446281D01*
X6362015Y3434208D01*
X6380337Y3426619D01*
X6400000Y3424030D01*
X6419662Y3426619D01*
X6437985Y3434208D01*
X6453718Y3446281D01*
X6465791Y3462015D01*
X6473381Y3480338D01*
X6475970Y3500000D01*
X6473381Y3519663D01*
X6465791Y3537985D01*
X6453718Y3553719D01*
X6437985Y3565792D01*
X6419662Y3573381D01*
X6400000Y3575970D01*
D02*
G37*
G36*
X6000000D02*
X5980338Y3573381D01*
X5962016Y3565792D01*
X5946282Y3553719D01*
X5934209Y3537985D01*
X5926619Y3519663D01*
X5924031Y3500000D01*
X5926619Y3480338D01*
X5934209Y3462015D01*
X5946282Y3446281D01*
X5962016Y3434208D01*
X5980338Y3426619D01*
X6000000Y3424030D01*
X6019663Y3426619D01*
X6037985Y3434208D01*
X6053719Y3446281D01*
X6065792Y3462015D01*
X6073382Y3480338D01*
X6075970Y3500000D01*
X6073382Y3519663D01*
X6065792Y3537985D01*
X6053719Y3553719D01*
X6037985Y3565792D01*
X6019663Y3573381D01*
X6000000Y3575970D01*
D02*
G37*
G36*
X5928599Y3630964D02*
X5850013D01*
X5771428D01*
X5771683Y3629024D01*
X5779784Y3609466D01*
X5792672Y3592671D01*
X5798073Y3588526D01*
X5794515Y3575248D01*
X5780338Y3573381D01*
X5762016Y3565792D01*
X5746282Y3553719D01*
X5734209Y3537985D01*
X5726619Y3519663D01*
X5724031Y3500000D01*
X5726619Y3480338D01*
X5734209Y3462015D01*
X5746282Y3446281D01*
X5762016Y3434208D01*
X5780338Y3426619D01*
X5800001Y3424030D01*
X5819663Y3426619D01*
X5837986Y3434208D01*
X5853720Y3446281D01*
X5865793Y3462015D01*
X5873382Y3480338D01*
X5875971Y3500000D01*
X5873382Y3519663D01*
X5865793Y3537985D01*
X5853720Y3553719D01*
X5849812Y3556718D01*
X5849825Y3557530D01*
X5854076Y3569454D01*
X5871002Y3571682D01*
X5890560Y3579784D01*
X5907355Y3592671D01*
X5920242Y3609466D01*
X5928344Y3629024D01*
X5928599Y3630964D01*
D02*
G37*
G36*
X4349986Y3725982D02*
X4330324Y3723394D01*
X4312002Y3715804D01*
X4296268Y3703731D01*
X4284195Y3687997D01*
X4276605Y3669675D01*
X4274017Y3650013D01*
X4276605Y3630350D01*
X4284195Y3612028D01*
X4296268Y3596294D01*
X4312002Y3584221D01*
X4330324Y3576631D01*
X4349986Y3574043D01*
X4352302Y3574347D01*
X4357333Y3562200D01*
X4346280Y3553719D01*
X4334207Y3537985D01*
X4326618Y3519663D01*
X4324029Y3500000D01*
X4326618Y3480338D01*
X4334207Y3462015D01*
X4346280Y3446281D01*
X4362014Y3434208D01*
X4380337Y3426619D01*
X4399999Y3424030D01*
X4419661Y3426619D01*
X4437984Y3434208D01*
X4453718Y3446281D01*
X4465791Y3462015D01*
X4473380Y3480338D01*
X4475969Y3500000D01*
X4473380Y3519663D01*
X4465791Y3537985D01*
X4453718Y3553719D01*
X4437984Y3565792D01*
X4419661Y3573381D01*
X4399999Y3575970D01*
X4397684Y3575665D01*
X4392652Y3587812D01*
X4403705Y3596294D01*
X4415778Y3612028D01*
X4423368Y3630350D01*
X4425956Y3650013D01*
X4423368Y3669675D01*
X4415778Y3687997D01*
X4403705Y3703731D01*
X4387971Y3715804D01*
X4369649Y3723394D01*
X4349986Y3725982D01*
D02*
G37*
G36*
X4199999Y3575970D02*
X4180337Y3573381D01*
X4162015Y3565792D01*
X4146281Y3553719D01*
X4134208Y3537985D01*
X4126618Y3519663D01*
X4124030Y3500000D01*
X4126618Y3480338D01*
X4134208Y3462015D01*
X4146281Y3446281D01*
X4162015Y3434208D01*
X4180337Y3426619D01*
X4199999Y3424030D01*
X4219662Y3426619D01*
X4237984Y3434208D01*
X4253718Y3446281D01*
X4265791Y3462015D01*
X4273381Y3480338D01*
X4275969Y3500000D01*
X4273381Y3519663D01*
X4265791Y3537985D01*
X4253718Y3553719D01*
X4237984Y3565792D01*
X4219662Y3573381D01*
X4199999Y3575970D01*
D02*
G37*
G36*
X3800000D02*
X3780338Y3573381D01*
X3762015Y3565792D01*
X3746282Y3553719D01*
X3734208Y3537985D01*
X3726619Y3519663D01*
X3724030Y3500000D01*
X3726619Y3480338D01*
X3734208Y3462015D01*
X3746282Y3446281D01*
X3762015Y3434208D01*
X3780338Y3426619D01*
X3800000Y3424030D01*
X3819663Y3426619D01*
X3837985Y3434208D01*
X3853719Y3446281D01*
X3865792Y3462015D01*
X3873382Y3480338D01*
X3875970Y3500000D01*
X3873382Y3519663D01*
X3865792Y3537985D01*
X3853719Y3553719D01*
X3837985Y3565792D01*
X3819663Y3573381D01*
X3800000Y3575970D01*
D02*
G37*
G36*
X3728599Y3630964D02*
X3650014D01*
X3571428D01*
X3571683Y3629024D01*
X3579784Y3609466D01*
X3592672Y3592671D01*
X3598073Y3588526D01*
X3594515Y3575248D01*
X3580338Y3573381D01*
X3562016Y3565792D01*
X3546282Y3553719D01*
X3534209Y3537985D01*
X3526619Y3519663D01*
X3524031Y3500000D01*
X3526619Y3480338D01*
X3534209Y3462015D01*
X3546282Y3446281D01*
X3562016Y3434208D01*
X3580338Y3426619D01*
X3600001Y3424030D01*
X3619663Y3426619D01*
X3637986Y3434208D01*
X3653719Y3446281D01*
X3665793Y3462015D01*
X3673382Y3480338D01*
X3675971Y3500000D01*
X3673382Y3519663D01*
X3665793Y3537985D01*
X3653719Y3553719D01*
X3649811Y3556718D01*
X3649825Y3557530D01*
X3654075Y3569454D01*
X3671002Y3571682D01*
X3690560Y3579784D01*
X3707355Y3592671D01*
X3720242Y3609466D01*
X3728344Y3629024D01*
X3728599Y3630964D01*
D02*
G37*
G36*
X2149987Y3725982D02*
X2130324Y3723394D01*
X2112002Y3715804D01*
X2096268Y3703731D01*
X2084195Y3687997D01*
X2076605Y3669675D01*
X2074017Y3650013D01*
X2076605Y3630350D01*
X2084195Y3612028D01*
X2096268Y3596294D01*
X2112002Y3584221D01*
X2130324Y3576631D01*
X2149987Y3574043D01*
X2152302Y3574347D01*
X2157334Y3562200D01*
X2146280Y3553719D01*
X2134207Y3537985D01*
X2126618Y3519663D01*
X2124029Y3500000D01*
X2126618Y3480338D01*
X2134207Y3462015D01*
X2146280Y3446281D01*
X2162014Y3434208D01*
X2180337Y3426619D01*
X2199999Y3424030D01*
X2219662Y3426619D01*
X2237984Y3434208D01*
X2253718Y3446281D01*
X2265791Y3462015D01*
X2273381Y3480338D01*
X2275969Y3500000D01*
X2273381Y3519663D01*
X2265791Y3537985D01*
X2253718Y3553719D01*
X2237984Y3565792D01*
X2219662Y3573381D01*
X2199999Y3575970D01*
X2197684Y3575665D01*
X2192652Y3587812D01*
X2203705Y3596294D01*
X2215778Y3612028D01*
X2223368Y3630350D01*
X2225956Y3650013D01*
X2223368Y3669675D01*
X2215778Y3687997D01*
X2203705Y3703731D01*
X2187971Y3715804D01*
X2169649Y3723394D01*
X2149987Y3725982D01*
D02*
G37*
G36*
X2000000Y3575970D02*
X1980337Y3573381D01*
X1962015Y3565792D01*
X1946281Y3553719D01*
X1934208Y3537985D01*
X1926618Y3519663D01*
X1924030Y3500000D01*
X1926618Y3480338D01*
X1934208Y3462015D01*
X1946281Y3446281D01*
X1962015Y3434208D01*
X1980337Y3426619D01*
X2000000Y3424030D01*
X2019662Y3426619D01*
X2037984Y3434208D01*
X2053718Y3446281D01*
X2065791Y3462015D01*
X2073381Y3480338D01*
X2075969Y3500000D01*
X2073381Y3519663D01*
X2065791Y3537985D01*
X2053718Y3553719D01*
X2037984Y3565792D01*
X2019662Y3573381D01*
X2000000Y3575970D01*
D02*
G37*
G36*
X1600000D02*
X1580338Y3573381D01*
X1562015Y3565792D01*
X1546282Y3553719D01*
X1534209Y3537985D01*
X1526619Y3519663D01*
X1524030Y3500000D01*
X1526619Y3480338D01*
X1534209Y3462015D01*
X1546282Y3446281D01*
X1562015Y3434208D01*
X1580338Y3426619D01*
X1600000Y3424030D01*
X1619663Y3426619D01*
X1637985Y3434208D01*
X1653719Y3446281D01*
X1665792Y3462015D01*
X1673382Y3480338D01*
X1675970Y3500000D01*
X1673382Y3519663D01*
X1665792Y3537985D01*
X1653719Y3553719D01*
X1637985Y3565792D01*
X1619663Y3573381D01*
X1600000Y3575970D01*
D02*
G37*
G36*
X1528599Y3630964D02*
X1450012D01*
X1371428D01*
X1371683Y3629024D01*
X1379784Y3609466D01*
X1392672Y3592671D01*
X1398073Y3588526D01*
X1394515Y3575248D01*
X1380338Y3573381D01*
X1362016Y3565792D01*
X1346282Y3553719D01*
X1334209Y3537985D01*
X1326619Y3519663D01*
X1324031Y3500000D01*
X1326619Y3480338D01*
X1334209Y3462015D01*
X1346282Y3446281D01*
X1362016Y3434208D01*
X1380338Y3426619D01*
X1400001Y3424030D01*
X1419663Y3426619D01*
X1437986Y3434208D01*
X1453719Y3446281D01*
X1465793Y3462015D01*
X1473382Y3480338D01*
X1475971Y3500000D01*
X1473382Y3519663D01*
X1465793Y3537985D01*
X1453719Y3553719D01*
X1449811Y3556718D01*
X1449825Y3557530D01*
X1454076Y3569454D01*
X1471002Y3571682D01*
X1490560Y3579784D01*
X1507355Y3592671D01*
X1520242Y3609466D01*
X1528344Y3629024D01*
X1528599Y3630964D01*
D02*
G37*
G36*
X1878586Y3480951D02*
X1819051D01*
Y3421415D01*
X1820988Y3421670D01*
X1840547Y3429771D01*
X1857342Y3442658D01*
X1870229Y3459453D01*
X1878330Y3479012D01*
X1878586Y3480951D01*
D02*
G37*
G36*
X4078585D02*
X4019050D01*
Y3421415D01*
X4020988Y3421670D01*
X4040547Y3429771D01*
X4057342Y3442658D01*
X4070229Y3459453D01*
X4078330Y3479012D01*
X4078585Y3480951D01*
D02*
G37*
G36*
X6180950D02*
X6121414D01*
X6121670Y3479012D01*
X6129771Y3459453D01*
X6142658Y3442658D01*
X6159453Y3429771D01*
X6179012Y3421670D01*
X6180950Y3421415D01*
Y3480951D01*
D02*
G37*
G36*
X6278586D02*
X6219050D01*
Y3421415D01*
X6220989Y3421670D01*
X6240547Y3429771D01*
X6257342Y3442658D01*
X6270229Y3459453D01*
X6278330Y3479012D01*
X6278586Y3480951D01*
D02*
G37*
G36*
X3980950D02*
X3921414D01*
X3921670Y3479012D01*
X3929771Y3459453D01*
X3942658Y3442658D01*
X3959453Y3429771D01*
X3979011Y3421670D01*
X3980950Y3421415D01*
Y3480951D01*
D02*
G37*
G36*
X1780951D02*
X1721414D01*
X1721670Y3479012D01*
X1729771Y3459453D01*
X1742658Y3442658D01*
X1759453Y3429771D01*
X1779011Y3421670D01*
X1780951Y3421415D01*
Y3480951D01*
D02*
G37*
G36*
X6869059Y3331371D02*
Y3176049D01*
X7024381D01*
X7022871Y3191383D01*
X7012842Y3224446D01*
X6996554Y3254917D01*
X6974636Y3281625D01*
X6947928Y3303544D01*
X6917457Y3319831D01*
X6884394Y3329861D01*
X6869059Y3331371D01*
D02*
G37*
G36*
X6830959D02*
X6815625Y3329861D01*
X6782562Y3319831D01*
X6752091Y3303544D01*
X6725383Y3281625D01*
X6703464Y3254917D01*
X6687177Y3224446D01*
X6677148Y3191383D01*
X6675637Y3176049D01*
X6830959D01*
Y3331371D01*
D02*
G37*
G36*
Y3137949D02*
X6675637D01*
X6677148Y3122615D01*
X6687177Y3089552D01*
X6703464Y3059081D01*
X6725383Y3032373D01*
X6752091Y3010454D01*
X6782562Y2994167D01*
X6815625Y2984137D01*
X6830959Y2982627D01*
Y3137949D01*
D02*
G37*
G36*
X7024381D02*
X6869059D01*
Y2982627D01*
X6884394Y2984137D01*
X6917457Y2994167D01*
X6947928Y3010454D01*
X6974636Y3032373D01*
X6996554Y3059081D01*
X7012842Y3089552D01*
X7022871Y3122615D01*
X7024381Y3137949D01*
D02*
G37*
G36*
X6669062Y2928572D02*
Y2869036D01*
X6728598D01*
X6728343Y2870975D01*
X6720241Y2890533D01*
X6707354Y2907328D01*
X6690559Y2920216D01*
X6671001Y2928317D01*
X6669062Y2928572D01*
D02*
G37*
G36*
X6500000Y2975969D02*
X6480338Y2973381D01*
X6462015Y2965791D01*
X6446281Y2953718D01*
X6434208Y2937984D01*
X6426619Y2919662D01*
X6424030Y2899999D01*
X6426619Y2880337D01*
X6434208Y2862014D01*
X6446281Y2846281D01*
X6462015Y2834207D01*
X6480338Y2826618D01*
X6500000Y2824029D01*
X6519662Y2826618D01*
X6537985Y2834207D01*
X6553719Y2846281D01*
X6556717Y2850189D01*
X6557529Y2850175D01*
X6569454Y2845924D01*
X6571682Y2828998D01*
X6579783Y2809440D01*
X6592671Y2792645D01*
X6609466Y2779758D01*
X6629024Y2771656D01*
X6630962Y2771401D01*
Y2849986D01*
Y2928572D01*
X6629024Y2928317D01*
X6609466Y2920216D01*
X6592671Y2907328D01*
X6588526Y2901927D01*
X6575248Y2905485D01*
X6573381Y2919662D01*
X6565792Y2937984D01*
X6553719Y2953718D01*
X6537985Y2965791D01*
X6519662Y2973381D01*
X6500000Y2975969D01*
D02*
G37*
G36*
X6728598Y2830936D02*
X6669062D01*
Y2771401D01*
X6671001Y2771656D01*
X6690559Y2779758D01*
X6707354Y2792645D01*
X6720241Y2809440D01*
X6728343Y2828998D01*
X6728598Y2830936D01*
D02*
G37*
G36*
X730993Y2744045D02*
X690043D01*
Y2687044D01*
X804535D01*
X804452Y2687678D01*
X796854Y2706019D01*
X784769Y2721770D01*
X769018Y2733856D01*
X750676Y2741453D01*
X730993Y2744045D01*
D02*
G37*
G36*
X651943D02*
X610993D01*
X591309Y2741453D01*
X572968Y2733856D01*
X557217Y2721770D01*
X545131Y2706019D01*
X537534Y2687678D01*
X537450Y2687044D01*
X651943D01*
Y2744045D01*
D02*
G37*
G36*
X349002D02*
X308052D01*
Y2687044D01*
X422545D01*
X422461Y2687678D01*
X414864Y2706019D01*
X402778Y2721770D01*
X387027Y2733856D01*
X368686Y2741453D01*
X349002Y2744045D01*
D02*
G37*
G36*
X269952D02*
X229002D01*
X209319Y2741453D01*
X190977Y2733856D01*
X175226Y2721770D01*
X163141Y2706019D01*
X155543Y2687678D01*
X155460Y2687044D01*
X269952D01*
Y2744045D01*
D02*
G37*
G36*
X6500000Y2775970D02*
X6480338Y2773381D01*
X6462015Y2765792D01*
X6446281Y2753718D01*
X6434208Y2737985D01*
X6426619Y2719662D01*
X6424030Y2700000D01*
X6426619Y2680337D01*
X6434208Y2662015D01*
X6446281Y2646281D01*
X6462015Y2634208D01*
X6480338Y2626618D01*
X6500000Y2624030D01*
X6519662Y2626618D01*
X6537985Y2634208D01*
X6553719Y2646281D01*
X6565792Y2662015D01*
X6573381Y2680337D01*
X6575970Y2700000D01*
X6573381Y2719662D01*
X6565792Y2737985D01*
X6553719Y2753718D01*
X6537985Y2765792D01*
X6519662Y2773381D01*
X6500000Y2775970D01*
D02*
G37*
G36*
X804535Y2648944D02*
X690043D01*
Y2591944D01*
X730993D01*
X750676Y2594535D01*
X769018Y2602132D01*
X784769Y2614218D01*
X796854Y2629969D01*
X804452Y2648311D01*
X804535Y2648944D01*
D02*
G37*
G36*
X651943D02*
X537450D01*
X537534Y2648311D01*
X545131Y2629969D01*
X557217Y2614218D01*
X572968Y2602132D01*
X591309Y2594535D01*
X610993Y2591944D01*
X651943D01*
Y2648944D01*
D02*
G37*
G36*
X422545D02*
X308052D01*
Y2591944D01*
X349002D01*
X368686Y2594535D01*
X387027Y2602132D01*
X402778Y2614218D01*
X414864Y2629969D01*
X422461Y2648311D01*
X422545Y2648944D01*
D02*
G37*
G36*
X269952D02*
X155460D01*
X155543Y2648311D01*
X163141Y2629969D01*
X175226Y2614218D01*
X190977Y2602132D01*
X209319Y2594535D01*
X229002Y2591944D01*
X269952D01*
Y2648944D01*
D02*
G37*
G36*
X6650012Y2675970D02*
X6630350Y2673381D01*
X6612027Y2665792D01*
X6596294Y2653719D01*
X6584221Y2637985D01*
X6576631Y2619662D01*
X6574042Y2600000D01*
X6576631Y2580337D01*
X6584221Y2562015D01*
X6596294Y2546281D01*
X6612027Y2534208D01*
X6630350Y2526619D01*
X6650012Y2524030D01*
X6669675Y2526619D01*
X6687997Y2534208D01*
X6703731Y2546281D01*
X6715804Y2562015D01*
X6723394Y2580337D01*
X6725982Y2600000D01*
X6723394Y2619662D01*
X6715804Y2637985D01*
X6703731Y2653719D01*
X6687997Y2665792D01*
X6669675Y2673381D01*
X6650012Y2675970D01*
D02*
G37*
G36*
X6519051Y2578585D02*
Y2519050D01*
X6578586D01*
X6578330Y2520989D01*
X6570229Y2540547D01*
X6557342Y2557342D01*
X6540547Y2570229D01*
X6520988Y2578330D01*
X6519051Y2578585D01*
D02*
G37*
G36*
X6480951Y2578586D02*
X6479011Y2578330D01*
X6459453Y2570229D01*
X6442658Y2557342D01*
X6429771Y2540547D01*
X6421670Y2520989D01*
X6421414Y2519050D01*
X6480951D01*
Y2578586D01*
D02*
G37*
G36*
X2851000Y2562208D02*
X2833317Y2558691D01*
X2820184Y2549915D01*
X2372774D01*
X2357412Y2546860D01*
X2344390Y2538158D01*
X2072817Y2266586D01*
X2068317Y2265691D01*
X2053326Y2255674D01*
X2043309Y2240683D01*
X2039792Y2223000D01*
X2043309Y2205317D01*
X2053326Y2190326D01*
X2068317Y2180310D01*
X2086000Y2176792D01*
X2103683Y2180310D01*
X2118674Y2190326D01*
X2128690Y2205317D01*
X2129586Y2209817D01*
X2389401Y2469633D01*
X2847774D01*
X2849788Y2470033D01*
X2851000Y2469792D01*
X2868683Y2473310D01*
X2883674Y2483326D01*
X2893690Y2498317D01*
X2897208Y2516000D01*
X2893690Y2533683D01*
X2883674Y2548674D01*
X2868683Y2558691D01*
X2851000Y2562208D01*
D02*
G37*
G36*
X1519506Y2460400D02*
X1519505Y2460400D01*
X618566D01*
X618565Y2460400D01*
X606355Y2457971D01*
X596004Y2451055D01*
X596003Y2451054D01*
X504439Y2359490D01*
X497523Y2349139D01*
X495094Y2336929D01*
X495094Y2336928D01*
Y1965946D01*
X495094Y1965945D01*
X497523Y1953735D01*
X504439Y1943384D01*
X620916Y1826907D01*
X621488Y1826073D01*
X621989Y1825201D01*
X622384Y1824359D01*
X622698Y1823511D01*
X622941Y1822636D01*
X623122Y1821685D01*
X623158Y1821350D01*
X622682Y1818958D01*
X626587Y1799324D01*
X634096Y1788086D01*
X636662Y1778953D01*
X634096Y1769819D01*
X626587Y1758581D01*
X622682Y1738948D01*
X626587Y1719314D01*
X634082Y1708097D01*
X637724Y1695256D01*
X626603Y1678612D01*
X622697Y1658978D01*
X626603Y1639344D01*
X637724Y1622700D01*
X654369Y1611578D01*
X674003Y1607672D01*
X693637Y1611578D01*
X710281Y1622700D01*
X721403Y1639344D01*
X723470Y1649734D01*
X795142D01*
X795143Y1649734D01*
X807353Y1652163D01*
X817704Y1659079D01*
X885697Y1727072D01*
X1252742D01*
X1252743Y1727072D01*
X1264953Y1729501D01*
X1275304Y1736417D01*
X1430194Y1891307D01*
X1435197Y1887963D01*
X1452880Y1884446D01*
X1470563Y1887963D01*
X1485554Y1897980D01*
X1495571Y1912971D01*
X1499088Y1930654D01*
X1495571Y1948337D01*
X1485554Y1963328D01*
X1470563Y1973345D01*
X1452880Y1976862D01*
X1442075Y1974713D01*
X1439652Y1977136D01*
X1436135Y1994819D01*
X1429851Y2004223D01*
X1436592Y2016923D01*
X1597724D01*
X1597725Y2016923D01*
X1609935Y2019352D01*
X1620286Y2026268D01*
X1681356Y2087338D01*
X1681753Y2087637D01*
X1682356Y2088029D01*
X1683004Y2087900D01*
X1700687Y2091417D01*
X1715678Y2101434D01*
X1725695Y2116425D01*
X1729212Y2134108D01*
X1725695Y2151791D01*
X1715678Y2166782D01*
X1700687Y2176799D01*
X1683004Y2180316D01*
X1665321Y2176799D01*
X1650330Y2166782D01*
X1640313Y2151791D01*
X1636796Y2134108D01*
X1636925Y2133460D01*
X1636531Y2132855D01*
X1636234Y2132460D01*
X1584509Y2080735D01*
X1353247D01*
X1353245Y2080735D01*
X1341036Y2078306D01*
X1330684Y2071390D01*
X1330684Y2071389D01*
X1317202Y2057907D01*
X1304502Y2063168D01*
Y2153525D01*
X1413988Y2263012D01*
X1427320Y2282964D01*
X1432002Y2306500D01*
X1427320Y2330036D01*
X1413988Y2349988D01*
X1394036Y2363320D01*
X1370500Y2368002D01*
X1346964Y2363320D01*
X1327012Y2349988D01*
X1199512Y2222489D01*
X1186180Y2202536D01*
X1181498Y2179000D01*
Y2055000D01*
X1186180Y2031464D01*
X1188617Y2027817D01*
X1183059Y2013276D01*
X1179974Y2012483D01*
X1128281Y2064175D01*
X1117930Y2071091D01*
X1105720Y2073520D01*
X1105719Y2073520D01*
X881091D01*
X815753Y2138859D01*
X805402Y2145775D01*
X793192Y2148204D01*
X793190Y2148203D01*
X723472D01*
X721400Y2158619D01*
X710279Y2175263D01*
X693634Y2186385D01*
X674000Y2190291D01*
X654366Y2186385D01*
X637722Y2175263D01*
X626600Y2158619D01*
X622694Y2138985D01*
X626600Y2119351D01*
X634110Y2108111D01*
X637711Y2095243D01*
X626590Y2078599D01*
X622684Y2058965D01*
X626590Y2039331D01*
X634084Y2028114D01*
X637727Y2015274D01*
X626605Y1998629D01*
X622700Y1978995D01*
X626605Y1959361D01*
X637727Y1942717D01*
X654371Y1931595D01*
X674005Y1927690D01*
X681695Y1929219D01*
X696586Y1919453D01*
X696607Y1919346D01*
X707729Y1902702D01*
X704114Y1889843D01*
X696597Y1878594D01*
X696577Y1878494D01*
X681686Y1868732D01*
X673987Y1870263D01*
X671621Y1869792D01*
X671247Y1869832D01*
X670301Y1870011D01*
X669423Y1870255D01*
X668579Y1870567D01*
X667737Y1870962D01*
X666868Y1871461D01*
X666033Y1872034D01*
X558906Y1979161D01*
Y2323713D01*
X576145Y2340953D01*
X586912Y2333759D01*
X585495Y2330339D01*
X583079Y2311982D01*
X585495Y2293625D01*
X592581Y2276518D01*
X603852Y2261829D01*
X618542Y2250557D01*
X635648Y2243472D01*
X654005Y2241055D01*
X714005D01*
X732362Y2243472D01*
X741297Y2247173D01*
X753661Y2244377D01*
X756442Y2240278D01*
X760185Y2231242D01*
X764676Y2224521D01*
X774522Y2214675D01*
X781243Y2210184D01*
X794108Y2204855D01*
X802036Y2203278D01*
X815961D01*
X823889Y2204855D01*
X836753Y2210184D01*
X843475Y2214675D01*
X853321Y2224521D01*
X857812Y2231242D01*
X863141Y2244106D01*
X864718Y2252035D01*
Y2265959D01*
X863141Y2273888D01*
X857812Y2286752D01*
X853321Y2293473D01*
X843475Y2303320D01*
X836754Y2307811D01*
X823889Y2313139D01*
X815961Y2314716D01*
X802036D01*
X797500Y2313814D01*
X788447Y2318162D01*
X783546Y2322511D01*
X782515Y2330339D01*
X775429Y2347445D01*
X764158Y2362134D01*
X749469Y2373406D01*
X732362Y2380492D01*
X714005Y2382908D01*
X654005D01*
X640426Y2381120D01*
X632868Y2392435D01*
X635801Y2396588D01*
X1506290D01*
X1748845Y2154033D01*
X1749163Y2153615D01*
X1749610Y2152938D01*
X1749619Y2152922D01*
X1753089Y2135475D01*
X1763106Y2120484D01*
X1778097Y2110467D01*
X1795780Y2106950D01*
X1813463Y2110467D01*
X1828454Y2120484D01*
X1838471Y2135475D01*
X1841988Y2153158D01*
X1838471Y2170841D01*
X1828454Y2185832D01*
X1813463Y2195849D01*
X1795780Y2199366D01*
X1794350Y2199081D01*
X1794338Y2199088D01*
X1793753Y2199463D01*
X1793381Y2199741D01*
X1542067Y2451055D01*
X1531716Y2457971D01*
X1519506Y2460400D01*
D02*
G37*
G36*
X6578586Y2480950D02*
X6519051D01*
Y2421415D01*
X6520988Y2421670D01*
X6540547Y2429771D01*
X6557342Y2442658D01*
X6570229Y2459453D01*
X6578330Y2479012D01*
X6578586Y2480950D01*
D02*
G37*
G36*
X6480951D02*
X6421414D01*
X6421670Y2479012D01*
X6429771Y2459453D01*
X6442658Y2442658D01*
X6459453Y2429771D01*
X6479011Y2421670D01*
X6480951Y2421415D01*
Y2480950D01*
D02*
G37*
G36*
X6650012Y2475970D02*
X6630350Y2473382D01*
X6612027Y2465792D01*
X6596294Y2453719D01*
X6584221Y2437985D01*
X6576631Y2419663D01*
X6574042Y2400000D01*
X6576631Y2380338D01*
X6584221Y2362015D01*
X6596294Y2346282D01*
X6612027Y2334208D01*
X6630350Y2326619D01*
X6650012Y2324030D01*
X6669675Y2326619D01*
X6687997Y2334208D01*
X6703731Y2346282D01*
X6715804Y2362015D01*
X6723394Y2380338D01*
X6725982Y2400000D01*
X6723394Y2419663D01*
X6715804Y2437985D01*
X6703731Y2453719D01*
X6687997Y2465792D01*
X6669675Y2473382D01*
X6650012Y2475970D01*
D02*
G37*
G36*
X274992Y2418926D02*
X214992D01*
X196635Y2416509D01*
X179528Y2409423D01*
X164839Y2398152D01*
X153567Y2383462D01*
X146482Y2366356D01*
X144065Y2347999D01*
X146482Y2329642D01*
X153567Y2312535D01*
X164839Y2297846D01*
X179528Y2286575D01*
X196635Y2279489D01*
X214992Y2277072D01*
X274992D01*
X293349Y2279489D01*
X310455Y2286575D01*
X325144Y2297846D01*
X336416Y2312535D01*
X343501Y2329642D01*
X345918Y2347999D01*
X343501Y2366356D01*
X336416Y2383462D01*
X325144Y2398152D01*
X310455Y2409423D01*
X293349Y2416509D01*
X274992Y2418926D01*
D02*
G37*
G36*
X6500000Y2375970D02*
X6480338Y2373382D01*
X6462015Y2365792D01*
X6446281Y2353719D01*
X6434208Y2337985D01*
X6426619Y2319663D01*
X6424030Y2300000D01*
X6426619Y2280338D01*
X6434208Y2262016D01*
X6446281Y2246282D01*
X6462015Y2234209D01*
X6480338Y2226619D01*
X6500000Y2224031D01*
X6519662Y2226619D01*
X6537985Y2234209D01*
X6553719Y2246282D01*
X6565792Y2262016D01*
X6573381Y2280338D01*
X6575970Y2300000D01*
X6573381Y2319663D01*
X6565792Y2337985D01*
X6553719Y2353719D01*
X6537985Y2365792D01*
X6519662Y2373382D01*
X6500000Y2375970D01*
D02*
G37*
G36*
X6650012Y2225983D02*
X6630350Y2223395D01*
X6612027Y2215805D01*
X6596294Y2203732D01*
X6584221Y2187998D01*
X6576631Y2169676D01*
X6574042Y2150013D01*
X6574347Y2147698D01*
X6562200Y2142667D01*
X6553719Y2153720D01*
X6537985Y2165793D01*
X6519662Y2173382D01*
X6500000Y2175971D01*
X6480338Y2173382D01*
X6462015Y2165793D01*
X6446281Y2153720D01*
X6434208Y2137986D01*
X6426619Y2119663D01*
X6424030Y2100001D01*
X6426619Y2080338D01*
X6434208Y2062016D01*
X6446281Y2046282D01*
X6462015Y2034209D01*
X6480338Y2026620D01*
X6500000Y2024031D01*
X6519662Y2026620D01*
X6537985Y2034209D01*
X6553719Y2046282D01*
X6565792Y2062016D01*
X6573381Y2080338D01*
X6575970Y2100001D01*
X6575665Y2102316D01*
X6587812Y2107348D01*
X6596294Y2096295D01*
X6612027Y2084222D01*
X6630350Y2076632D01*
X6650012Y2074044D01*
X6669675Y2076632D01*
X6687997Y2084222D01*
X6703731Y2096295D01*
X6715804Y2112029D01*
X6723394Y2130351D01*
X6725982Y2150013D01*
X6723394Y2169676D01*
X6715804Y2187998D01*
X6703731Y2203732D01*
X6687997Y2215805D01*
X6669675Y2223395D01*
X6650012Y2225983D01*
D02*
G37*
G36*
X4008000Y2441208D02*
X3990317Y2437691D01*
X3975326Y2427674D01*
X3965310Y2412683D01*
X3961792Y2395000D01*
X3965310Y2377317D01*
X3975326Y2362326D01*
X3990317Y2352309D01*
X3997314Y2350918D01*
X4093859Y2254373D01*
Y1949149D01*
X4093288Y1945917D01*
X4092432Y1943347D01*
X4091557Y1941723D01*
X4090702Y1940678D01*
X4089657Y1939823D01*
X4088033Y1938948D01*
X4085463Y1938092D01*
X4082232Y1937521D01*
X4047432D01*
X4044878Y1938029D01*
X3774016D01*
X3769609Y1938518D01*
X3764161Y1939557D01*
X3758950Y1940995D01*
X3753939Y1942831D01*
X3749100Y1945074D01*
X3744399Y1947743D01*
X3739808Y1950863D01*
X3736350Y1953631D01*
X3565782Y2124199D01*
X3564691Y2129683D01*
X3554674Y2144674D01*
X3539683Y2154691D01*
X3522000Y2158208D01*
X3504317Y2154691D01*
X3489326Y2144674D01*
X3479310Y2129683D01*
X3475792Y2112000D01*
X3479310Y2094317D01*
X3489326Y2079326D01*
X3504317Y2069310D01*
X3507833Y2068610D01*
X3679581Y1896863D01*
X3682352Y1893401D01*
X3685469Y1888813D01*
X3688137Y1884113D01*
X3690381Y1879273D01*
X3692217Y1874262D01*
X3693655Y1869051D01*
X3694694Y1863603D01*
X3695183Y1859196D01*
Y1697181D01*
X3694612Y1693949D01*
X3693756Y1691379D01*
X3692881Y1689755D01*
X3692026Y1688710D01*
X3690981Y1687855D01*
X3689357Y1686980D01*
X3686787Y1686124D01*
X3683555Y1685553D01*
X3077835D01*
X3056280Y1707109D01*
X3055385Y1711609D01*
X3045368Y1726600D01*
X3030377Y1736617D01*
X3012694Y1740134D01*
X2995011Y1736617D01*
X2980020Y1726600D01*
X2970003Y1711609D01*
X2966486Y1693926D01*
X2970003Y1676243D01*
X2980020Y1661252D01*
X2995011Y1651235D01*
X2999511Y1650340D01*
X3032824Y1617028D01*
X3045847Y1608326D01*
X3061208Y1605271D01*
X3683555D01*
X3686787Y1604700D01*
X3689357Y1603844D01*
X3690981Y1602969D01*
X3692026Y1602114D01*
X3692881Y1601069D01*
X3693756Y1599445D01*
X3694612Y1596875D01*
X3695183Y1593643D01*
Y914676D01*
X3698238Y899315D01*
X3706940Y886292D01*
X4024911Y568321D01*
X4025309Y566317D01*
X4035326Y551326D01*
X4050317Y541310D01*
X4068000Y537792D01*
X4085683Y541310D01*
X4100674Y551326D01*
X4110691Y566317D01*
X4114208Y584000D01*
X4110691Y601683D01*
X4100674Y616674D01*
X4085683Y626691D01*
X4078686Y628082D01*
X3775465Y931303D01*
Y1645412D01*
Y1846119D01*
X3776036Y1849351D01*
X3776892Y1851921D01*
X3777767Y1853545D01*
X3778622Y1854590D01*
X3779667Y1855445D01*
X3781291Y1856320D01*
X3783861Y1857176D01*
X3787093Y1857747D01*
X4042832D01*
X4045386Y1857239D01*
X4347963D01*
Y1756896D01*
X4351018Y1741535D01*
X4359720Y1728512D01*
X4394496Y1693736D01*
X4407519Y1685034D01*
X4422880Y1681979D01*
X4891278D01*
X4906639Y1685034D01*
X4919662Y1693736D01*
X5029429Y1803502D01*
X5033929Y1804397D01*
X5048920Y1814414D01*
X5058937Y1829405D01*
X5062454Y1847088D01*
X5058937Y1864771D01*
X5048920Y1879762D01*
X5033929Y1889779D01*
X5016246Y1893296D01*
X4998563Y1889779D01*
X4983572Y1879762D01*
X4973555Y1864771D01*
X4972660Y1860271D01*
X4874651Y1762261D01*
X4439507D01*
X4428245Y1773523D01*
Y1956562D01*
X4427900Y1958296D01*
Y2157197D01*
X4436129Y2169511D01*
X4439646Y2187194D01*
X4436129Y2204877D01*
X4426112Y2219868D01*
X4411121Y2229885D01*
X4393438Y2233402D01*
X4375755Y2229885D01*
X4360764Y2219868D01*
X4350747Y2204877D01*
X4347230Y2187194D01*
X4347635Y2185158D01*
X4347618Y2185071D01*
Y1950883D01*
X4347749Y1950221D01*
X4346276Y1937521D01*
X4185769D01*
X4182537Y1938092D01*
X4179967Y1938948D01*
X4178343Y1939823D01*
X4177298Y1940678D01*
X4176443Y1941723D01*
X4175568Y1943347D01*
X4174712Y1945917D01*
X4174142Y1949149D01*
Y2271000D01*
X4171086Y2286361D01*
X4162384Y2299384D01*
X4051089Y2410679D01*
X4050691Y2412683D01*
X4040674Y2427674D01*
X4025683Y2437691D01*
X4008000Y2441208D01*
D02*
G37*
G36*
X6869059Y2017373D02*
Y1862051D01*
X7024381D01*
X7022871Y1877385D01*
X7012842Y1910449D01*
X6996554Y1940919D01*
X6974636Y1967628D01*
X6947928Y1989546D01*
X6917457Y2005833D01*
X6884394Y2015863D01*
X6869059Y2017373D01*
D02*
G37*
G36*
X6830959D02*
X6815625Y2015863D01*
X6782562Y2005833D01*
X6752091Y1989546D01*
X6725383Y1967628D01*
X6703464Y1940919D01*
X6687177Y1910449D01*
X6677148Y1877385D01*
X6675637Y1862051D01*
X6830959D01*
Y2017373D01*
D02*
G37*
G36*
X6850009Y1843001D02*
D01*
D01*
D01*
D02*
G37*
G36*
X6830959Y1823951D02*
X6675637D01*
X6677148Y1808617D01*
X6687177Y1775554D01*
X6703464Y1745083D01*
X6725383Y1718375D01*
X6752091Y1696456D01*
X6782562Y1680169D01*
X6815625Y1670139D01*
X6830959Y1668629D01*
Y1823951D01*
D02*
G37*
G36*
X7024381D02*
X6869059D01*
Y1668629D01*
X6884394Y1670139D01*
X6917457Y1680169D01*
X6947928Y1696456D01*
X6974636Y1718375D01*
X6996554Y1745083D01*
X7012842Y1775554D01*
X7022871Y1808617D01*
X7024381Y1823951D01*
D02*
G37*
G36*
X815961Y1579717D02*
X802036D01*
X794108Y1578140D01*
X781243Y1572811D01*
X774522Y1568320D01*
X764676Y1558474D01*
X761711Y1554037D01*
X756166Y1551041D01*
X745352Y1549129D01*
X732362Y1554509D01*
X714005Y1556926D01*
X654005D01*
X635648Y1554509D01*
X618542Y1547423D01*
X603852Y1536152D01*
X592581Y1521463D01*
X585495Y1504356D01*
X583079Y1485999D01*
X585495Y1467642D01*
X592581Y1450536D01*
X603852Y1435846D01*
X618542Y1424575D01*
X635648Y1417489D01*
X654005Y1415072D01*
X714005D01*
X732362Y1417489D01*
X749469Y1424575D01*
X764158Y1435846D01*
X775429Y1450536D01*
X782117Y1466681D01*
X790477Y1468894D01*
X795578Y1469563D01*
X802036Y1468278D01*
X815961D01*
X823889Y1469855D01*
X836753Y1475184D01*
X843475Y1479675D01*
X853321Y1489521D01*
X857812Y1496242D01*
X863141Y1509106D01*
X864718Y1517035D01*
Y1530960D01*
X863141Y1538888D01*
X857812Y1551753D01*
X853321Y1558474D01*
X843475Y1568320D01*
X836754Y1572811D01*
X823889Y1578140D01*
X815961Y1579717D01*
D02*
G37*
G36*
X274992Y1520909D02*
X214992D01*
X196635Y1518492D01*
X179528Y1511406D01*
X164839Y1500135D01*
X153567Y1485445D01*
X146482Y1468339D01*
X144065Y1449982D01*
X146482Y1431625D01*
X153567Y1414518D01*
X164839Y1399829D01*
X179528Y1388558D01*
X196635Y1381472D01*
X214992Y1379055D01*
X274992D01*
X293349Y1381472D01*
X310455Y1388558D01*
X325144Y1399829D01*
X336416Y1414518D01*
X343501Y1431625D01*
X345918Y1449982D01*
X343501Y1468339D01*
X336416Y1485445D01*
X325144Y1500135D01*
X310455Y1511406D01*
X293349Y1518492D01*
X274992Y1520909D01*
D02*
G37*
G36*
X7296000Y1615927D02*
X7277643Y1613510D01*
X7260537Y1606424D01*
X7245847Y1595153D01*
X7243847Y1593153D01*
X7243846Y1593152D01*
X7212621Y1561927D01*
X6384000D01*
X6365643Y1559510D01*
X6348537Y1552424D01*
X6333847Y1541153D01*
X5733621Y940927D01*
X5044000D01*
X5025643Y938510D01*
X5017218Y935020D01*
X5010024Y945787D01*
X5056118Y991881D01*
X5069031Y1011206D01*
X5073564Y1034000D01*
X5069031Y1056794D01*
X5056118Y1076118D01*
X5036794Y1089031D01*
X5014000Y1093564D01*
X4991206Y1089031D01*
X4971881Y1076118D01*
X4549957Y654195D01*
X4546944Y652181D01*
X4545881Y651119D01*
X4543879Y648121D01*
X4540881Y646119D01*
X4301037Y406275D01*
X3833114D01*
X3810320Y401740D01*
X3790995Y388829D01*
X3778084Y369504D01*
X3773549Y346710D01*
X3778084Y323916D01*
X3790995Y304591D01*
X3795432Y301627D01*
X3791580Y288927D01*
X3388379D01*
X3222305Y455001D01*
Y592836D01*
X3219888Y611193D01*
X3212802Y628299D01*
X3201531Y642989D01*
X3186841Y654260D01*
X3169735Y661346D01*
X3151378Y663763D01*
X3136836Y661848D01*
X2718193Y1080491D01*
Y1111937D01*
X2718211Y1112113D01*
X2718311Y1112750D01*
X2727217Y1126079D01*
X2730734Y1143762D01*
X2727217Y1161445D01*
X2717200Y1176436D01*
X2702209Y1186453D01*
X2684526Y1189970D01*
X2666843Y1186453D01*
X2651852Y1176436D01*
X2641835Y1161445D01*
X2638318Y1143762D01*
X2641835Y1126079D01*
X2650741Y1112750D01*
X2650803Y1112354D01*
X2650859Y1111649D01*
Y1066546D01*
X2653422Y1053662D01*
X2660720Y1042740D01*
X3085621Y617839D01*
X3082868Y611193D01*
X3080451Y592836D01*
Y425622D01*
X3082868Y407265D01*
X3089954Y390159D01*
X3101225Y375469D01*
X3308847Y167847D01*
X3323537Y156576D01*
X3340643Y149490D01*
X3359000Y147073D01*
X4392000D01*
X4410357Y149490D01*
X4427464Y156576D01*
X4442153Y167847D01*
X5073379Y799073D01*
X5763000D01*
X5781358Y801490D01*
X5798464Y808576D01*
X5813153Y819847D01*
X6413379Y1420073D01*
X7242000D01*
X7260357Y1422490D01*
X7277463Y1429576D01*
X7292153Y1440847D01*
X7344152Y1492846D01*
X7344153Y1492847D01*
X7346153Y1494847D01*
X7357424Y1509537D01*
X7364510Y1526643D01*
X7366927Y1545000D01*
X7364510Y1563357D01*
X7357424Y1580463D01*
X7346153Y1595153D01*
X7331463Y1606424D01*
X7314357Y1613510D01*
X7296000Y1615927D01*
D02*
G37*
G36*
X2375000Y879208D02*
X2357317Y875691D01*
X2342326Y865674D01*
X2332310Y850683D01*
X2328792Y833000D01*
X2332310Y815317D01*
X2342326Y800326D01*
X2357317Y790310D01*
X2375000Y786792D01*
X2376356Y787062D01*
X2376521Y786994D01*
X2376956Y786771D01*
X2377516Y786425D01*
X2377910Y786141D01*
X2550747Y613304D01*
X2551090Y612838D01*
X2551512Y612178D01*
X2551814Y611618D01*
X2551911Y611399D01*
X2555309Y594317D01*
X2565326Y579326D01*
X2580317Y569310D01*
X2598000Y565792D01*
X2615683Y569310D01*
X2630674Y579326D01*
X2640690Y594317D01*
X2644208Y612000D01*
X2640690Y629683D01*
X2630674Y644674D01*
X2615683Y654691D01*
X2598000Y658208D01*
X2595165Y657644D01*
X2594911Y657639D01*
X2594907Y657640D01*
X2594896Y657641D01*
X2594827Y657661D01*
X2594656Y657726D01*
X2594349Y657876D01*
X2593895Y658147D01*
X2593578Y658372D01*
X2421860Y830090D01*
X2421575Y830484D01*
X2421230Y831043D01*
X2421006Y831479D01*
X2420938Y831644D01*
X2421208Y833000D01*
X2417691Y850683D01*
X2407674Y865674D01*
X2392683Y875691D01*
X2375000Y879208D01*
D02*
G37*
G36*
X2330000Y640208D02*
X2312317Y636691D01*
X2297326Y626674D01*
X2287309Y611683D01*
X2283912Y594601D01*
X2283813Y594380D01*
X2283512Y593823D01*
X2283090Y593161D01*
X2282747Y592697D01*
X2203128Y513077D01*
X2156193D01*
X2155713Y513154D01*
X2155071Y513307D01*
X2154606Y513456D01*
X2154442Y513524D01*
X2153674Y514674D01*
X2138683Y524691D01*
X2121000Y528208D01*
X2103317Y524691D01*
X2088326Y514674D01*
X2078310Y499683D01*
X2074792Y482000D01*
X2078310Y464317D01*
X2088326Y449326D01*
X2103317Y439310D01*
X2121000Y435792D01*
X2138683Y439310D01*
X2153674Y449326D01*
X2154442Y450476D01*
X2154606Y450544D01*
X2155071Y450694D01*
X2155713Y450846D01*
X2156193Y450923D01*
X2216000D01*
X2227893Y453288D01*
X2237975Y460025D01*
X2325578Y547628D01*
X2325896Y547853D01*
X2326349Y548124D01*
X2326655Y548274D01*
X2326827Y548340D01*
X2326896Y548359D01*
X2326906Y548361D01*
X2326911Y548361D01*
X2327165Y548356D01*
X2330000Y547792D01*
X2347683Y551310D01*
X2362674Y561326D01*
X2372690Y576317D01*
X2376208Y594000D01*
X2372690Y611683D01*
X2362674Y626674D01*
X2347683Y636691D01*
X2330000Y640208D01*
D02*
G37*
G36*
X2666492Y883138D02*
X2648809Y879621D01*
X2633818Y869604D01*
X2623801Y854613D01*
X2620284Y836930D01*
X2623801Y819247D01*
X2633818Y804256D01*
X2648809Y794239D01*
X2666492Y790722D01*
X2684175Y794239D01*
X2699166Y804256D01*
X2699934Y805406D01*
X2700098Y805474D01*
X2700563Y805623D01*
X2701205Y805776D01*
X2701684Y805853D01*
X2748616D01*
X2970821Y583647D01*
X2971152Y583197D01*
X2971557Y582557D01*
X2971809Y582085D01*
X2971792Y582000D01*
X2975310Y564317D01*
X2985326Y549326D01*
X3000317Y539310D01*
X3018000Y535792D01*
X3035683Y539310D01*
X3050674Y549326D01*
X3060691Y564317D01*
X3064208Y582000D01*
X3060691Y599683D01*
X3050674Y614674D01*
X3035683Y624691D01*
X3018000Y628208D01*
X3015351Y627681D01*
X3015341Y627683D01*
X3015235Y627714D01*
X3015028Y627794D01*
X3014697Y627957D01*
X3014221Y628243D01*
X3013886Y628482D01*
X2783463Y858905D01*
X2773381Y865642D01*
X2761488Y868007D01*
X2701685D01*
X2701205Y868084D01*
X2700563Y868237D01*
X2700098Y868386D01*
X2699934Y868454D01*
X2699166Y869604D01*
X2684175Y879621D01*
X2666492Y883138D01*
D02*
G37*
G36*
X7614774Y570718D02*
X7585226D01*
X7583225Y570320D01*
X7581184D01*
X7552205Y564555D01*
X7550319Y563774D01*
X7548318Y563376D01*
X7521020Y552069D01*
X7519323Y550935D01*
X7517438Y550154D01*
X7492870Y533739D01*
X7491428Y532296D01*
X7489731Y531162D01*
X7468837Y510269D01*
X7467703Y508572D01*
X7466261Y507130D01*
X7449845Y482562D01*
X7449065Y480677D01*
X7447931Y478980D01*
X7436623Y451682D01*
X7436225Y449680D01*
X7435444Y447795D01*
X7429680Y418816D01*
Y416775D01*
X7429282Y414774D01*
Y385226D01*
X7429680Y383225D01*
Y381184D01*
X7435444Y352205D01*
X7436225Y350319D01*
X7436623Y348318D01*
X7447931Y321020D01*
X7449065Y319323D01*
X7449845Y317438D01*
X7466261Y292870D01*
X7467704Y291428D01*
X7468837Y289731D01*
X7489731Y268837D01*
X7491428Y267703D01*
X7492870Y266261D01*
X7517438Y249845D01*
X7519323Y249065D01*
X7521020Y247931D01*
X7548318Y236623D01*
X7550319Y236225D01*
X7552205Y235444D01*
X7581184Y229680D01*
X7583225D01*
X7585226Y229282D01*
X7614774D01*
X7616775Y229680D01*
X7618816D01*
X7647795Y235444D01*
X7649681Y236225D01*
X7651682Y236623D01*
X7678980Y247931D01*
X7680677Y249065D01*
X7682562Y249845D01*
X7707130Y266261D01*
X7708572Y267704D01*
X7710269Y268837D01*
X7731162Y289730D01*
X7732297Y291428D01*
X7733739Y292870D01*
X7750154Y317438D01*
X7750935Y319323D01*
X7752069Y321020D01*
X7763376Y348318D01*
X7763774Y350319D01*
X7764555Y352205D01*
X7770320Y381184D01*
Y383225D01*
X7770718Y385226D01*
Y414774D01*
X7770320Y416775D01*
Y418816D01*
X7764555Y447795D01*
X7763774Y449681D01*
X7763376Y451682D01*
X7752069Y478980D01*
X7750935Y480677D01*
X7750154Y482562D01*
X7733739Y507130D01*
X7732296Y508572D01*
X7731162Y510269D01*
X7710269Y531162D01*
X7708572Y532297D01*
X7707130Y533739D01*
X7682562Y550154D01*
X7680677Y550935D01*
X7678980Y552069D01*
X7651682Y563376D01*
X7649681Y563774D01*
X7647795Y564555D01*
X7618816Y570320D01*
X7616775D01*
X7614774Y570718D01*
D02*
G37*
G36*
X414774D02*
X385226D01*
X383225Y570320D01*
X381184D01*
X352205Y564555D01*
X350319Y563774D01*
X348318Y563376D01*
X321020Y552069D01*
X319323Y550935D01*
X317438Y550154D01*
X292870Y533739D01*
X291428Y532296D01*
X289731Y531162D01*
X268837Y510269D01*
X267703Y508572D01*
X266261Y507130D01*
X249845Y482562D01*
X249065Y480677D01*
X247931Y478980D01*
X236623Y451682D01*
X236225Y449680D01*
X235444Y447795D01*
X229680Y418816D01*
Y416775D01*
X229282Y414774D01*
Y385226D01*
X229680Y383225D01*
Y381184D01*
X235444Y352205D01*
X236225Y350319D01*
X236623Y348318D01*
X247931Y321020D01*
X249065Y319323D01*
X249845Y317438D01*
X266261Y292870D01*
X267704Y291428D01*
X268837Y289731D01*
X289730Y268837D01*
X291428Y267703D01*
X292870Y266261D01*
X317438Y249845D01*
X319323Y249065D01*
X321020Y247931D01*
X348318Y236623D01*
X350319Y236225D01*
X352205Y235444D01*
X381184Y229680D01*
X383225D01*
X385226Y229282D01*
X414774D01*
X416775Y229680D01*
X418816D01*
X447795Y235444D01*
X449681Y236225D01*
X451682Y236623D01*
X478980Y247931D01*
X480677Y249065D01*
X482562Y249845D01*
X507130Y266261D01*
X508572Y267704D01*
X510269Y268837D01*
X531162Y289730D01*
X532297Y291428D01*
X533739Y292870D01*
X550154Y317438D01*
X550935Y319323D01*
X552069Y321020D01*
X563376Y348318D01*
X563774Y350319D01*
X564555Y352205D01*
X570320Y381184D01*
Y383225D01*
X570718Y385226D01*
Y414774D01*
X570320Y416775D01*
Y418816D01*
X564555Y447795D01*
X563774Y449681D01*
X563376Y451682D01*
X552069Y478980D01*
X550935Y480677D01*
X550154Y482562D01*
X533739Y507130D01*
X532296Y508572D01*
X531162Y510269D01*
X510269Y531162D01*
X508572Y532297D01*
X507130Y533739D01*
X482562Y550154D01*
X480677Y550935D01*
X478980Y552069D01*
X451682Y563376D01*
X449681Y563774D01*
X447795Y564555D01*
X418816Y570320D01*
X416775D01*
X414774Y570718D01*
D02*
G37*
G36*
X5274000Y619616D02*
X5256161Y616067D01*
X5241038Y605962D01*
X4867052Y231976D01*
X4864038Y229962D01*
X4853933Y214839D01*
X4850385Y197000D01*
X4853933Y179161D01*
X4864038Y164038D01*
X4879161Y153933D01*
X4897000Y150385D01*
X4898000D01*
X4915839Y153933D01*
X4930962Y164038D01*
X5306962Y540038D01*
X5317067Y555161D01*
X5320616Y573000D01*
X5317067Y590839D01*
X5306962Y605962D01*
X5291839Y616067D01*
X5274000Y619616D01*
D02*
G37*
%LPD*%
G36*
X1778227Y2185386D02*
X1780092Y2183806D01*
X1781952Y2182419D01*
X1783809Y2181227D01*
X1785662Y2180228D01*
X1787511Y2179423D01*
X1789356Y2178812D01*
X1791197Y2178395D01*
X1793034Y2178171D01*
X1794867Y2178141D01*
X1770783Y2152745D01*
X1770661Y2154568D01*
X1770356Y2156396D01*
X1769867Y2158228D01*
X1769194Y2160065D01*
X1768337Y2161907D01*
X1767297Y2163753D01*
X1766073Y2165603D01*
X1764666Y2167458D01*
X1763074Y2169318D01*
X1761299Y2171183D01*
X1776359Y2187159D01*
X1778227Y2185386D01*
D02*
G37*
G36*
X1682754Y2109109D02*
X1680924Y2109033D01*
X1679090Y2108768D01*
X1677252Y2108315D01*
X1675410Y2107673D01*
X1673564Y2106842D01*
X1671714Y2105823D01*
X1669859Y2104615D01*
X1668001Y2103218D01*
X1666139Y2101633D01*
X1664273Y2099859D01*
X1648755Y2115377D01*
X1650529Y2117243D01*
X1652114Y2119105D01*
X1653511Y2120964D01*
X1654719Y2122818D01*
X1655738Y2124668D01*
X1656569Y2126514D01*
X1657211Y2128356D01*
X1657664Y2130194D01*
X1657929Y2132028D01*
X1658005Y2133858D01*
X1682754Y2109109D01*
D02*
G37*
G36*
X767443Y1958080D02*
X769554Y1956375D01*
X771762Y1954871D01*
X774067Y1953568D01*
X776468Y1952465D01*
X778966Y1951562D01*
X781561Y1950860D01*
X784252Y1950359D01*
X787041Y1950058D01*
X789926Y1949958D01*
Y1928012D01*
X787041Y1927912D01*
X784252Y1927611D01*
X781561Y1927110D01*
X778966Y1926408D01*
X776468Y1925506D01*
X774067Y1924403D01*
X771762Y1923099D01*
X769554Y1921595D01*
X767443Y1919890D01*
X765429Y1917985D01*
Y1959985D01*
X767443Y1958080D01*
D02*
G37*
G36*
X1013897Y1935178D02*
X1014162Y1933344D01*
X1014615Y1931506D01*
X1015257Y1929664D01*
X1016088Y1927818D01*
X1017107Y1925968D01*
X1018315Y1924113D01*
X1019712Y1922255D01*
X1021297Y1920393D01*
X1023071Y1918527D01*
X1007553Y1903009D01*
X1005687Y1904783D01*
X1003825Y1906368D01*
X1001966Y1907765D01*
X1000112Y1908973D01*
X998262Y1909992D01*
X996416Y1910823D01*
X994574Y1911465D01*
X992736Y1911918D01*
X990902Y1912183D01*
X989072Y1912259D01*
X1013821Y1937008D01*
X1013897Y1935178D01*
D02*
G37*
G36*
X946049Y1887437D02*
X947911Y1885852D01*
X949770Y1884455D01*
X951624Y1883247D01*
X953474Y1882228D01*
X955320Y1881397D01*
X957162Y1880755D01*
X959000Y1880302D01*
X960834Y1880037D01*
X962664Y1879961D01*
X937915Y1855212D01*
X937839Y1857042D01*
X937574Y1858876D01*
X937121Y1860714D01*
X936479Y1862556D01*
X935648Y1864402D01*
X934629Y1866252D01*
X933421Y1868107D01*
X932024Y1869965D01*
X930439Y1871827D01*
X928665Y1873693D01*
X944183Y1889211D01*
X946049Y1887437D01*
D02*
G37*
G36*
X651390Y1857215D02*
X653574Y1855456D01*
X655832Y1853908D01*
X658163Y1852569D01*
X660568Y1851441D01*
X663045Y1850523D01*
X665597Y1849816D01*
X668221Y1849319D01*
X670919Y1849032D01*
X673691Y1848956D01*
X643999Y1819250D01*
X643921Y1822022D01*
X643634Y1824720D01*
X643136Y1827345D01*
X642427Y1829896D01*
X641509Y1832374D01*
X640380Y1834778D01*
X639042Y1837109D01*
X637493Y1839367D01*
X635734Y1841552D01*
X633765Y1843663D01*
X649278Y1859184D01*
X651390Y1857215D01*
D02*
G37*
G36*
X4153431Y1947291D02*
X4154574Y1940814D01*
X4156479Y1935099D01*
X4159146Y1930146D01*
X4162575Y1925955D01*
X4166766Y1922526D01*
X4171719Y1919859D01*
X4177434Y1917954D01*
X4183911Y1916811D01*
X4191150Y1916430D01*
X4134000Y1878330D01*
X4076850Y1916430D01*
X4084089Y1916811D01*
X4090566Y1917954D01*
X4096281Y1919859D01*
X4101234Y1922526D01*
X4105425Y1925955D01*
X4108854Y1930146D01*
X4111521Y1935099D01*
X4113426Y1940814D01*
X4114569Y1947291D01*
X4114950Y1954530D01*
X4153050D01*
X4153431Y1947291D01*
D02*
G37*
G36*
X3721774Y1938760D02*
X3727497Y1934180D01*
X3733443Y1930139D01*
X3739612Y1926637D01*
X3746005Y1923673D01*
X3752620Y1921249D01*
X3759459Y1919363D01*
X3766521Y1918016D01*
X3773806Y1917207D01*
X3781315Y1916938D01*
X3792474Y1878838D01*
X3785235Y1878457D01*
X3778758Y1877314D01*
X3773043Y1875409D01*
X3768090Y1872742D01*
X3763899Y1869313D01*
X3760470Y1865122D01*
X3757803Y1860169D01*
X3755898Y1854454D01*
X3754755Y1847977D01*
X3754374Y1840738D01*
X3716274Y1851897D01*
X3716005Y1859406D01*
X3715196Y1866691D01*
X3713849Y1873753D01*
X3711963Y1880592D01*
X3709539Y1887207D01*
X3706575Y1893600D01*
X3703073Y1899769D01*
X3699032Y1905715D01*
X3694452Y1911438D01*
X3689333Y1916938D01*
X3716274Y1943879D01*
X3721774Y1938760D01*
D02*
G37*
G36*
X3754374Y1645412D02*
X3716274Y1588262D01*
X3715893Y1595501D01*
X3714750Y1601978D01*
X3712845Y1607693D01*
X3710178Y1612646D01*
X3706749Y1616837D01*
X3702558Y1620266D01*
X3697605Y1622933D01*
X3691890Y1624838D01*
X3685413Y1625981D01*
X3678174Y1626362D01*
Y1664462D01*
X3685413Y1664843D01*
X3691890Y1665986D01*
X3697605Y1667891D01*
X3702558Y1670558D01*
X3706749Y1673987D01*
X3710178Y1678178D01*
X3712845Y1683131D01*
X3714750Y1688846D01*
X3715893Y1695323D01*
X3716274Y1702562D01*
X3754374Y1645412D01*
D02*
G37*
G36*
X2701114Y1124875D02*
X2700298Y1123656D01*
X2699578Y1122251D01*
X2698954Y1120661D01*
X2698426Y1118886D01*
X2697994Y1116925D01*
X2697658Y1114779D01*
X2697418Y1112448D01*
X2697226Y1107228D01*
X2671826D01*
X2671778Y1109930D01*
X2671394Y1114779D01*
X2671058Y1116925D01*
X2670626Y1118886D01*
X2670098Y1120661D01*
X2669474Y1122251D01*
X2668754Y1123656D01*
X2667938Y1124875D01*
X2667026Y1125908D01*
X2702026D01*
X2701114Y1124875D01*
D02*
G37*
G36*
X3140495Y628614D02*
X3144206Y625508D01*
X3145973Y624271D01*
X3147680Y623244D01*
X3149328Y622429D01*
X3150916Y621825D01*
X3152445Y621431D01*
X3153914Y621248D01*
X3155324Y621276D01*
X3132801Y594486D01*
X3132610Y595783D01*
X3132230Y597153D01*
X3131662Y598595D01*
X3130905Y600110D01*
X3129959Y601696D01*
X3128825Y603355D01*
X3127501Y605086D01*
X3124288Y608765D01*
X3122399Y610713D01*
X3138549Y630483D01*
X3140495Y628614D01*
D02*
G37*
G36*
X2400070Y830707D02*
X2400324Y828688D01*
X2400761Y826694D01*
X2401381Y824725D01*
X2402183Y822780D01*
X2403169Y820860D01*
X2404338Y818965D01*
X2405690Y817094D01*
X2407225Y815248D01*
X2408943Y813426D01*
X2394574Y799057D01*
X2392753Y800775D01*
X2390907Y802310D01*
X2389036Y803662D01*
X2387140Y804831D01*
X2385220Y805817D01*
X2383275Y806620D01*
X2381306Y807240D01*
X2379312Y807677D01*
X2377293Y807931D01*
X2375250Y808001D01*
X2399999Y832750D01*
X2400070Y830707D01*
D02*
G37*
G36*
X2578846Y643631D02*
X2580698Y642107D01*
X2582573Y640777D01*
X2584471Y639644D01*
X2586392Y638705D01*
X2588335Y637962D01*
X2590301Y637415D01*
X2592290Y637062D01*
X2594302Y636906D01*
X2596336Y636945D01*
X2573027Y610836D01*
X2572846Y612873D01*
X2572495Y614885D01*
X2571973Y616872D01*
X2571280Y618835D01*
X2570416Y620773D01*
X2569382Y622686D01*
X2568178Y624575D01*
X2566803Y626438D01*
X2565257Y628277D01*
X2563540Y630092D01*
X2577017Y645352D01*
X2578846Y643631D01*
D02*
G37*
G36*
X2328336Y569056D02*
X2326302Y569094D01*
X2324290Y568938D01*
X2322301Y568585D01*
X2320335Y568038D01*
X2318392Y567295D01*
X2316471Y566356D01*
X2314573Y565223D01*
X2312698Y563893D01*
X2310846Y562369D01*
X2309017Y560649D01*
X2295540Y575908D01*
X2297257Y577723D01*
X2298803Y579562D01*
X2300178Y581425D01*
X2301382Y583314D01*
X2302417Y585227D01*
X2303280Y587165D01*
X2303973Y589128D01*
X2304495Y591115D01*
X2304846Y593127D01*
X2305027Y595164D01*
X2328336Y569056D01*
D02*
G37*
G36*
X2140349Y498105D02*
X2141955Y496858D01*
X2143674Y495757D01*
X2145505Y494802D01*
X2147448Y493995D01*
X2149503Y493335D01*
X2151670Y492821D01*
X2153949Y492454D01*
X2156340Y492233D01*
X2158842Y492160D01*
Y471840D01*
X2156340Y471767D01*
X2153949Y471546D01*
X2151670Y471179D01*
X2149503Y470666D01*
X2147448Y470005D01*
X2145505Y469198D01*
X2143674Y468243D01*
X2141955Y467143D01*
X2140349Y465895D01*
X2138854Y464500D01*
Y499500D01*
X2140349Y498105D01*
D02*
G37*
G36*
X2685840Y853035D02*
X2687447Y851787D01*
X2689166Y850687D01*
X2690997Y849732D01*
X2692940Y848925D01*
X2694995Y848264D01*
X2697162Y847751D01*
X2699441Y847384D01*
X2701832Y847163D01*
X2704334Y847090D01*
Y826770D01*
X2701832Y826697D01*
X2699441Y826476D01*
X2697162Y826109D01*
X2694995Y825596D01*
X2692940Y824935D01*
X2690997Y824128D01*
X2689166Y823173D01*
X2687447Y822073D01*
X2685840Y820825D01*
X2684346Y819430D01*
Y854430D01*
X2685840Y853035D01*
D02*
G37*
G36*
X2999133Y613761D02*
X3000984Y612234D01*
X3002858Y610901D01*
X3004756Y609760D01*
X3006677Y608811D01*
X3008621Y608056D01*
X3010589Y607493D01*
X3012580Y607123D01*
X3014594Y606947D01*
X3016632Y606962D01*
X2993015Y581131D01*
X2992857Y583171D01*
X2992526Y585186D01*
X2992022Y587175D01*
X2991344Y589140D01*
X2990493Y591080D01*
X2989470Y592996D01*
X2988272Y594886D01*
X2986902Y596751D01*
X2985359Y598592D01*
X2983642Y600408D01*
X2997305Y615481D01*
X2999133Y613761D01*
D02*
G37*
D10*
X673998Y1658978D02*
X683223D01*
X705885Y1681640D01*
X795143D01*
X872481Y1758978D01*
X1252743D01*
X1419641Y1925875D01*
X1448101D01*
X1452880Y1930654D01*
X1388666Y1943897D02*
Y1972358D01*
X1393444Y1977136D01*
Y1974151D01*
X1388666Y1943897D02*
X1238393Y1793624D01*
X858130D01*
X780792Y1716286D01*
X705870D01*
X683208Y1738948D01*
X673998D01*
X962914Y1854962D02*
X878891Y1938985D01*
X744005D01*
X853525Y2006968D02*
X1091370D01*
X1155669Y1942669D01*
Y1913304D01*
X1159996Y1908978D01*
X1179205Y1968129D02*
X1208570D01*
X1212896Y1963803D01*
X1179205Y1968129D02*
X1105720Y2041614D01*
X867875D01*
X793192Y2116298D01*
X705883D01*
X683195Y2138985D01*
X673998D01*
X618565Y2428494D02*
X1519506D01*
X1795000Y2153000D01*
X1799000D01*
X1683004Y2134108D02*
X1597725Y2048829D01*
X1353245D01*
X1299718Y1995302D01*
Y1920303D01*
X1218393Y1838978D01*
X1087102D01*
X988822Y1937258D01*
X618565Y2428494D02*
X527000Y2336929D01*
Y1965945D01*
X673987Y1818958D01*
X673998D01*
Y2058965D02*
X683185D01*
X705873Y2081652D01*
X778841D01*
X853525Y2006968D01*
D31*
X2086000Y2223000D02*
X2372774Y2509774D01*
X2847774D01*
X3520106Y2113106D02*
X3735324Y1897888D01*
X4044878D01*
X4045386Y1897380D01*
X4134000D01*
X4385380D01*
X4388000Y1900000D01*
X4387759Y1950883D02*
Y2185071D01*
X4389882Y2187194D01*
X4393438D01*
X4388104Y1956562D02*
Y1756896D01*
X4422880Y1722120D01*
X4891278D01*
X5016246Y1847088D01*
X4134000Y2271000D02*
X4015000Y2390000D01*
X4134000Y2271000D02*
Y1897380D01*
X3735324Y1897888D02*
Y1645412D01*
Y914676D01*
X4061000Y589000D01*
X4579000Y604000D02*
X4583000D01*
X4588000Y609000D01*
X4589000D01*
X3735324Y1645412D02*
X3061208D01*
X3012694Y1693926D01*
D32*
X1243000Y2055000D02*
Y2179000D01*
X1370500Y2306500D01*
D33*
X2121000Y482000D02*
X2216000D01*
X2328000Y594000D01*
X2330000D01*
X2596000Y612000D02*
X2598000D01*
X2596000D02*
X2375000Y833000D01*
X2666492Y836930D02*
X2761488D01*
X3017209Y581209D01*
D34*
X4897000Y197000D02*
X4898000D01*
X5274000Y573000D01*
D35*
X3833114Y346710D02*
X4325710D01*
X4583000Y604000D01*
X4588000Y609000D02*
X4589063Y610063D01*
X4589000Y609000D02*
X5014000Y1034000D01*
D36*
X1805000Y2347000D02*
Y2350000D01*
X869000Y3286000D01*
Y3725000D01*
X870000Y3726000D01*
Y3793000D01*
X3151378Y592836D02*
Y425622D01*
X3359000Y218000D01*
X4392000D01*
X5044000Y870000D01*
X5763000D01*
X6384000Y1491000D01*
X7242000D01*
X7294000Y1543000D01*
X7296000Y1545000D01*
D37*
X2684526Y1066546D02*
X3156712Y594360D01*
X2684526Y1066546D02*
Y1143762D01*
D39*
X244992Y1449982D02*
D03*
X684005Y1485999D02*
D03*
Y2311982D02*
D03*
X244992Y2347999D02*
D03*
D40*
X674003Y1658978D02*
D03*
X673987Y1738948D02*
D03*
X744013Y1778991D02*
D03*
X744008Y1618991D02*
D03*
X743997Y1858960D02*
D03*
X744008Y1938980D02*
D03*
X743995Y2018952D02*
D03*
X674005Y1978995D02*
D03*
X673990Y2058965D02*
D03*
X673987Y1818958D02*
D03*
X674000Y2138985D02*
D03*
X744003Y2178980D02*
D03*
D41*
X2456999Y3850010D02*
D03*
X3343001D02*
D03*
X4656999D02*
D03*
X5543001D02*
D03*
X6850009Y3156999D02*
D03*
X6856999Y3850010D02*
D03*
X6850009Y1843001D02*
D03*
X1143001Y3850010D02*
D03*
D42*
X2000000Y3500000D02*
D03*
X2199999D02*
D03*
X2149987Y3650013D02*
D03*
X1900000D02*
D03*
X1700000D02*
D03*
X1800000Y3500000D02*
D03*
X1600000D02*
D03*
X1400001D02*
D03*
X1450013Y3650013D02*
D03*
X3600001Y3500000D02*
D03*
X3800000D02*
D03*
X3900000Y3650013D02*
D03*
X3650013D02*
D03*
X4100000D02*
D03*
X4199999Y3500000D02*
D03*
X4000000D02*
D03*
X4399999D02*
D03*
X4349986Y3650013D02*
D03*
X5850013D02*
D03*
X5800001Y3500000D02*
D03*
X6000000D02*
D03*
X6200000D02*
D03*
X6100000Y3650013D02*
D03*
X6300000D02*
D03*
X6549987D02*
D03*
X6599999Y3500000D02*
D03*
X6400000D02*
D03*
X6500000Y2899999D02*
D03*
Y2700000D02*
D03*
Y2500000D02*
D03*
Y2300000D02*
D03*
Y2100001D02*
D03*
X6650012Y2150013D02*
D03*
Y2400000D02*
D03*
Y2600000D02*
D03*
Y2849987D02*
D03*
D43*
X670993Y2667994D02*
D03*
X289002D02*
D03*
X670998Y3532006D02*
D03*
X289007D02*
D03*
D44*
X104000Y656000D02*
D03*
Y949615D02*
D03*
X490000Y1327000D02*
D03*
X736000Y1238000D02*
D03*
X915000Y1459000D02*
D03*
X1172000Y1235000D02*
D03*
X1517000Y1238000D02*
D03*
X1878000Y1235000D02*
D03*
X2183000D02*
D03*
X2375000Y833000D02*
D03*
X2330000Y594000D02*
D03*
X2598000Y612000D02*
D03*
X2847289Y274279D02*
D03*
X2757640Y105000D02*
D03*
X3040720D02*
D03*
X3323800D02*
D03*
X3606880D02*
D03*
X3889959D02*
D03*
X4173039D02*
D03*
X4456119D02*
D03*
X4739199D02*
D03*
X5022279D02*
D03*
X5305359D02*
D03*
X5588439D02*
D03*
X5871519D02*
D03*
X6154599D02*
D03*
X6437679D02*
D03*
X6720759D02*
D03*
X7003839D02*
D03*
X7286919D02*
D03*
X7569999D02*
D03*
X7864000Y625000D02*
D03*
Y918615D02*
D03*
Y1212231D02*
D03*
Y1505846D02*
D03*
Y1799461D02*
D03*
Y2093077D02*
D03*
Y2386692D02*
D03*
Y2680308D02*
D03*
Y2973923D02*
D03*
Y3267538D02*
D03*
Y3561154D02*
D03*
Y3854769D02*
D03*
Y4148384D02*
D03*
Y4442000D02*
D03*
X7396999Y4891000D02*
D03*
X7113919D02*
D03*
X6830839D02*
D03*
X6547759D02*
D03*
X6264679D02*
D03*
X5981599D02*
D03*
X5698519D02*
D03*
X5415439D02*
D03*
X5132359D02*
D03*
X4849279D02*
D03*
X4566199D02*
D03*
X4283119D02*
D03*
X4000039D02*
D03*
X3716960D02*
D03*
X3433880D02*
D03*
X3150800D02*
D03*
X2867720D02*
D03*
X2584640D02*
D03*
X2301560D02*
D03*
X2018480D02*
D03*
X1735400D02*
D03*
X1452320D02*
D03*
X1169240D02*
D03*
X886160D02*
D03*
X603080D02*
D03*
X320000D02*
D03*
X104000Y4473000D02*
D03*
Y4179384D02*
D03*
Y3885769D02*
D03*
Y3592154D02*
D03*
Y3298538D02*
D03*
Y3004923D02*
D03*
Y2711308D02*
D03*
Y2417692D02*
D03*
Y2124077D02*
D03*
Y1830461D02*
D03*
Y1536846D02*
D03*
Y1243231D02*
D03*
X451000Y1534000D02*
D03*
X444000Y1720000D02*
D03*
X626000Y1590000D02*
D03*
X925000Y1583000D02*
D03*
X1337000Y1596000D02*
D03*
X1480000Y1601000D02*
D03*
X1665000Y1654000D02*
D03*
X1971000Y1782000D02*
D03*
X2426000Y1229000D02*
D03*
X2570000Y1347000D02*
D03*
X2666492Y836930D02*
D03*
X3018000Y582000D02*
D03*
X3157728Y596392D02*
D03*
X3025290Y275279D02*
D03*
X3833114Y346710D02*
D03*
X4068000Y584000D02*
D03*
X4579000Y604000D02*
D03*
X4743289Y277279D02*
D03*
X4897000Y197000D02*
D03*
X5274000Y573000D02*
D03*
X5415000Y1056000D02*
D03*
X5592000Y1062000D02*
D03*
X5724000Y1069000D02*
D03*
X5993000Y1323000D02*
D03*
X6115000Y1447000D02*
D03*
X6311000Y1669000D02*
D03*
X6392000Y1758000D02*
D03*
X6437000Y1860000D02*
D03*
X6432000Y1963000D02*
D03*
X6652000Y2275000D02*
D03*
X6814000Y2386000D02*
D03*
X6827000Y2132000D02*
D03*
X6945000Y2561000D02*
D03*
Y2745000D02*
D03*
X6659000Y2729000D02*
D03*
X6930000Y2915000D02*
D03*
X6587000Y2966000D02*
D03*
X6293000Y2791000D02*
D03*
X6425000Y2604000D02*
D03*
X6428000Y2402000D02*
D03*
X6040000Y2534000D02*
D03*
X6136000Y2634000D02*
D03*
X5974000Y2723000D02*
D03*
X6130000Y2373000D02*
D03*
X6070000Y2272000D02*
D03*
X6177000Y2240000D02*
D03*
X6066000Y2124000D02*
D03*
X6077000Y1706000D02*
D03*
X6042000Y1606000D02*
D03*
X6259000Y1580000D02*
D03*
X5753000Y1834000D02*
D03*
X5641000Y1962000D02*
D03*
X5656000Y1740000D02*
D03*
X5718000Y1554000D02*
D03*
X5634000Y1471000D02*
D03*
X5937000Y1513000D02*
D03*
X5812000Y1641000D02*
D03*
X5890000Y1721000D02*
D03*
X5826000Y1399000D02*
D03*
X5737000Y1311000D02*
D03*
X5858000Y1194000D02*
D03*
X5559000Y1649000D02*
D03*
X5460000Y1550000D02*
D03*
X5390000Y1715000D02*
D03*
X5470000Y1793000D02*
D03*
X5420000Y1271000D02*
D03*
X5578000Y1269000D02*
D03*
X5016000Y1035000D02*
D03*
X4686000Y1021000D02*
D03*
X4481000Y1026000D02*
D03*
X3672000Y928000D02*
D03*
X3683000Y719000D02*
D03*
X3772000Y610000D02*
D03*
X3150000Y1450000D02*
D03*
X3052000Y1420000D02*
D03*
X3012694Y1693926D02*
D03*
X3301000Y1913000D02*
D03*
X3484000Y1905000D02*
D03*
X3522000Y2112000D02*
D03*
X3157000Y2060000D02*
D03*
X2665000Y1915000D02*
D03*
X2622000Y1700000D02*
D03*
X2659000Y1439000D02*
D03*
X2684526Y1143762D02*
D03*
X2447000Y1700000D02*
D03*
X2284000Y1692000D02*
D03*
X2592000Y1893000D02*
D03*
X2468000Y2019000D02*
D03*
X2548000Y2107000D02*
D03*
X2341892Y2182044D02*
D03*
X2851000Y2516000D02*
D03*
X2854000Y2752000D02*
D03*
X2692000Y2755000D02*
D03*
X3018000D02*
D03*
X3183000Y2750000D02*
D03*
X3452000Y2732000D02*
D03*
X3454000Y2577000D02*
D03*
X3634000Y2807000D02*
D03*
X3735000Y2964000D02*
D03*
X3632000Y3066000D02*
D03*
X3873000Y3058000D02*
D03*
X3955000Y2785000D02*
D03*
X4191000Y2788000D02*
D03*
X4008000Y2395000D02*
D03*
X4565000Y2032000D02*
D03*
X4844000Y2019000D02*
D03*
X4747000Y1920000D02*
D03*
X5016246Y1847088D02*
D03*
X5388000Y1945000D02*
D03*
X5460000Y2017000D02*
D03*
X5530000Y2085000D02*
D03*
X5559000Y1880000D02*
D03*
X5952000Y2450000D02*
D03*
X5818000Y2563000D02*
D03*
X5827000Y2725000D02*
D03*
X6016000Y2925000D02*
D03*
X6099000Y2862000D02*
D03*
X6245000Y2999000D02*
D03*
X6020000Y3092000D02*
D03*
X6026000Y3317000D02*
D03*
X6425000Y3646000D02*
D03*
X6406000Y3777000D02*
D03*
X6615000Y3794000D02*
D03*
X6246000Y3902000D02*
D03*
X6046000Y3922000D02*
D03*
X5825000Y3917000D02*
D03*
X5708000Y3574000D02*
D03*
X5633000Y3492000D02*
D03*
X5701000Y3413000D02*
D03*
X5818000Y3149000D02*
D03*
X5712000Y3044000D02*
D03*
X5922000Y2987000D02*
D03*
X5829000Y2882000D02*
D03*
X5575000Y3146000D02*
D03*
X5405000Y3227000D02*
D03*
X5402000Y3392000D02*
D03*
X5584000Y3415000D02*
D03*
X5406000Y3060000D02*
D03*
X5405000Y2904000D02*
D03*
X5400000Y2737000D02*
D03*
X5402000Y2584000D02*
D03*
X5400000Y2446000D02*
D03*
X5405000Y2281000D02*
D03*
X5384000Y2178000D02*
D03*
X5263000Y2796000D02*
D03*
X5252000Y2284000D02*
D03*
X5064000Y2281000D02*
D03*
X4633000Y2776000D02*
D03*
X4814000Y2383000D02*
D03*
X4790000Y2261000D02*
D03*
X4788000Y2161000D02*
D03*
X4947000Y2144000D02*
D03*
X4425000Y2798000D02*
D03*
X4580000Y2404000D02*
D03*
X4575000Y2262000D02*
D03*
X4569000Y2137000D02*
D03*
X4393438Y2187194D02*
D03*
X5039000Y2885000D02*
D03*
X5169000D02*
D03*
X4961000Y3171000D02*
D03*
X5422000Y3567000D02*
D03*
X5476000Y3643000D02*
D03*
X4907000Y2879000D02*
D03*
X4732000Y2865000D02*
D03*
X4496000Y3143000D02*
D03*
X4490000Y3294000D02*
D03*
X4486000Y3403000D02*
D03*
X4408000Y3032000D02*
D03*
Y2924000D02*
D03*
X4097000Y3223000D02*
D03*
X4083000Y3344000D02*
D03*
X3969000Y3215000D02*
D03*
X4089000Y3093000D02*
D03*
X4193000Y2947000D02*
D03*
X3952000Y2941000D02*
D03*
X3787000Y3143000D02*
D03*
X3869000Y3313000D02*
D03*
X4234000Y3624000D02*
D03*
X4237000Y3789000D02*
D03*
X4439000Y3794000D02*
D03*
X4055000Y3848000D02*
D03*
X3860000Y3929000D02*
D03*
X3616000Y3932000D02*
D03*
X3777000Y3684000D02*
D03*
X3547000Y3609000D02*
D03*
X3349000Y3618000D02*
D03*
X3351000Y3467000D02*
D03*
X3543000Y3403000D02*
D03*
X3558000Y3142000D02*
D03*
X3424000Y3041000D02*
D03*
X3306000Y3100000D02*
D03*
X3368000Y2847000D02*
D03*
X3528000Y2936000D02*
D03*
X3266000Y3299000D02*
D03*
X3055000D02*
D03*
X3134000Y3103000D02*
D03*
X2952000Y3100000D02*
D03*
X3010000Y2915000D02*
D03*
X3226000Y2913000D02*
D03*
X2901000Y3299000D02*
D03*
X2707000Y3301000D02*
D03*
X2796000Y3099000D02*
D03*
X2810000Y2914000D02*
D03*
X2610000Y3078000D02*
D03*
X2572000Y2913000D02*
D03*
X2370000Y2915000D02*
D03*
X2264000Y2753000D02*
D03*
X2507000Y2750000D02*
D03*
X2117000Y2918000D02*
D03*
X2004000Y3029000D02*
D03*
X2164000Y3117000D02*
D03*
X2015000Y2770000D02*
D03*
X1998000Y2488000D02*
D03*
X2108000Y2489000D02*
D03*
X2086000Y2223000D02*
D03*
X2241912Y2182044D02*
D03*
X1969000Y1981000D02*
D03*
X1972000Y1884000D02*
D03*
X1795780Y2153158D02*
D03*
X1683004Y2134108D02*
D03*
X1753000Y2388000D02*
D03*
X1805000Y2347000D02*
D03*
X1649000Y2678000D02*
D03*
X1891000Y2899000D02*
D03*
X1787000Y3004000D02*
D03*
X2000000Y3313000D02*
D03*
X2107000Y3794000D02*
D03*
X1807000Y3900000D02*
D03*
X1605000Y3925000D02*
D03*
X1925000Y3806000D02*
D03*
X1886000Y3349000D02*
D03*
X1750000Y3347000D02*
D03*
X1654000Y3384000D02*
D03*
X1727000Y3184000D02*
D03*
X1884000Y3146000D02*
D03*
X1578000Y3644000D02*
D03*
X1336000Y3603000D02*
D03*
X1401000Y3383000D02*
D03*
X1386000Y3146000D02*
D03*
X1501000Y3036000D02*
D03*
X1162000Y3424000D02*
D03*
X1141000Y2886000D02*
D03*
X898000Y2827000D02*
D03*
X906000Y2700000D02*
D03*
X627000Y2215000D02*
D03*
X988822Y1937258D02*
D03*
X962914Y1854962D02*
D03*
X1159996Y1908978D02*
D03*
X1212896Y1963803D02*
D03*
X1243000Y2055000D02*
D03*
X1393444Y1977136D02*
D03*
X1452880Y1930654D02*
D03*
X1471000Y2246000D02*
D03*
X1370000Y2305000D02*
D03*
X1217000Y2291000D02*
D03*
X962000Y2218000D02*
D03*
X932000Y2348000D02*
D03*
X542000Y2835000D02*
D03*
X532000Y2968000D02*
D03*
X548000Y3277000D02*
D03*
X554000Y3410000D02*
D03*
X871000Y3726000D02*
D03*
Y3799000D02*
D03*
X1157000Y3585000D02*
D03*
X1386000Y3927000D02*
D03*
X500000Y1906000D02*
D03*
X2121000Y482000D02*
D03*
X1908400Y105000D02*
D03*
X1625320D02*
D03*
X2191480D02*
D03*
X2474560D02*
D03*
X1342240D02*
D03*
X1059160D02*
D03*
X776080D02*
D03*
X493000D02*
D03*
X7248000Y1496000D02*
D03*
X7294000Y1543000D02*
D03*
D45*
X3854000Y1364000D02*
D03*
X4071000D02*
D03*
X4288000D02*
D03*
Y1547000D02*
D03*
Y1732000D02*
D03*
X4071000D02*
D03*
Y1547000D02*
D03*
X3854000D02*
D03*
Y1732000D02*
D03*
%TF.MD5,a827cf57dfd4dc49a34169b36a3edaee*%
M02*
